<svg xmlns="http://www.w3.org/2000/svg" xmlns:xlink="http://www.w3.org/1999/xlink" xmlns:lucid="lucid" width="3677.73" height="3840.5"><g transform="translate(0 0)" lucid:page-tab-id="0_0"><path d="M340 1826c0-3.3 2.7-6 6-6h268c3.3 0 6 2.7 6 6v102c0 3.3-2.7 6-6 6H346c-3.3 0-6-2.7-6-6z" fill="#fff"/><path d="M340 1826c0-3.3 2.7-6 6-6h268c3.3 0 6 2.7 6 6v102c0 3.3-2.7 6-6 6H346c-3.3 0-6-2.7-6-6zM340 1860h280" stroke="#5e5e5e" stroke-width="3" fill="none"/><use xlink:href="#a" transform="matrix(1,0,0,1,350,1820) translate(82.53086419753086 24.444444444444443)"/><path d="M560 2093.5c0 33.14-35.82 60-80 60s-80-26.86-80-60 35.82-60 80-60 80 26.86 80 60z" stroke="#5e5e5e" stroke-width="3" fill="#fff"/><use xlink:href="#b" transform="matrix(1,0,0,1,400,2033.5) translate(29.4803086419753 62.77777777777778)"/><path d="M481 2355.33h-2v-89h2zm0-110.33h-2v-89h2z" stroke="#5e5e5e" stroke-width=".05" fill="#5e5e5e"/><path d="M479.98 2155h.95l.07 1.03h-2v-1.06z" fill="#5e5e5e"/><path d="M479.98 2154.98h.98l.07 1.07h-2.05v-1.1zm-.96 1.02h1.95l-.06-.98H480l-.96-.02z" stroke="#5e5e5e" stroke-width=".05" fill="#5e5e5e"/><path d="M481 2356.33h-2v-1.02h2z" fill="#5e5e5e"/><path d="M481.02 2356.36h-2.04v-1.08h2.04zm-2-1.03v.98h1.96v-.97z" stroke="#5e5e5e" stroke-width=".05" fill="#5e5e5e"/><use xlink:href="#c" transform="matrix(1,0,0,1,408.0740740740741,2244.9996301449432) translate(0.0049999999999954525 14.222222222222223)"/><use xlink:href="#d" transform="matrix(1,0,0,1,408.0740740740741,2244.9996301449432) translate(19.758086419753084 14.222222222222223)"/><use xlink:href="#e" transform="matrix(1,0,0,1,408.0740740740741,2244.9996301449432) translate(80.84450617283952 14.222222222222223)"/><use xlink:href="#f" transform="matrix(1,0,0,1,408.0740740740741,2244.9996301449432) translate(106.47413580246915 14.222222222222223)"/><path d="M481 2031h-2v-36.58h2zm0-57.92h-2v-36.58h2z" stroke="#5e5e5e" stroke-width=".05" fill="#5e5e5e"/><path d="M481 2032.03l-.98-.03h-.95l-.07-1.03h2z" fill="#5e5e5e"/><path d="M481.02 2032.06l-1-.04h-.98l-.07-1.07h2.05zm-2-1.06l.07.98h.92l.96.02v-1z" stroke="#5e5e5e" stroke-width=".05" fill="#5e5e5e"/><path d="M481 1936.53h-2v-1.03h2z" fill="#5e5e5e"/><path d="M481.02 1936.55h-2.04v-1.08h2.04zm-2-1.02v.97h1.96v-.97z" stroke="#5e5e5e" stroke-width=".05" fill="#5e5e5e"/><use xlink:href="#g" transform="matrix(1,0,0,1,436.17283950617286,1973.0833269178777) translate(0.005000000000002558 14.222222222222223)"/><use xlink:href="#h" transform="matrix(1,0,0,1,436.17283950617286,1973.0833269178777) translate(56.153148148148155 14.222222222222223)"/><path d="M380 2363.83c0-3.3 2.7-6 6-6h188c3.3 0 6 2.7 6 6v102c0 3.32-2.7 6-6 6H386c-3.3 0-6-2.68-6-6z" fill="#fff"/><path d="M380 2363.83c0-3.3 2.7-6 6-6h188c3.3 0 6 2.7 6 6v102c0 3.32-2.7 6-6 6H386c-3.3 0-6-2.68-6-6zM380 2397.83h200" stroke="#5e5e5e" stroke-width="3" fill="none"/><use xlink:href="#i" transform="matrix(1,0,0,1,390,2357.8325807923084) translate(54.90740740740742 24.444444444444443)"/><use xlink:href="#j" transform="matrix(1,0,0,1,385,2400.3325807923084) translate(0 20.444444444444443)"/><path d="M626.67 2678v-53.5c0-3.3-2.7-6-6-6h-281c-3.3 0-6 2.7-6 6v53.5" stroke="#5e5e5e" stroke-width="2" fill="none"/><path d="M627.67 2679h-2v-1.02h2zM334.68 2679h-2v-1.02h2z" stroke="#5e5e5e" stroke-width=".05" fill="#5e5e5e"/><path d="M519.1 2686.5c0-3.3 2.7-6 6-6h188c3.3 0 6 2.7 6 6v102c0 3.32-2.7 6-6 6h-188c-3.3 0-6-2.68-6-6z" fill="#fff"/><path d="M519.1 2686.5c0-3.3 2.7-6 6-6h188c3.3 0 6 2.7 6 6v102c0 3.32-2.7 6-6 6h-188c-3.3 0-6-2.68-6-6zM519.1 2720.5h200" stroke="#5e5e5e" stroke-width="3" fill="none"/><use xlink:href="#k" transform="matrix(1,0,0,1,529.1004572678715,2680.502747466785) translate(55.586419753086425 24.444444444444443)"/><use xlink:href="#l" transform="matrix(1,0,0,1,524.1004572678715,2723.002747466785) translate(0 20.444444444444443)"/><path d="M231.53 2686.5c0-3.3 2.7-6 6-6h188c3.32 0 6 2.7 6 6v102c0 3.32-2.68 6-6 6h-188c-3.3 0-6-2.68-6-6z" fill="#fff"/><path d="M231.53 2686.5c0-3.3 2.7-6 6-6h188c3.32 0 6 2.7 6 6v102c0 3.32-2.68 6-6 6h-188c-3.3 0-6-2.68-6-6zM231.53 2720.5h200" stroke="#5e5e5e" stroke-width="3" fill="none"/><use xlink:href="#m" transform="matrix(1,0,0,1,241.53349532805169,2680.502747466785) translate(62.25308641975309 24.444444444444443)"/><use xlink:href="#n" transform="matrix(1,0,0,1,236.53349532805169,2723.002747466785) translate(0 20.444444444444443)"/><path d="M2007.68 1909.67c0-3.32 2.7-6 6-6h188c3.3 0 6 2.68 6 6v304c0 3.3-2.7 6-6 6h-188c-3.3 0-6-2.7-6-6z" fill="#fff"/><path d="M2007.68 1909.67c0-3.32 2.7-6 6-6h188c3.3 0 6 2.68 6 6v304c0 3.3-2.7 6-6 6h-188c-3.3 0-6-2.7-6-6zM2007.68 1943.67h200" stroke="#5e5e5e" stroke-width="3" fill="none"/><use xlink:href="#o" transform="matrix(1,0,0,1,2017.678962109635,1903.6674192076916) translate(54.845679012345684 24.444444444444443)"/><use xlink:href="#p" transform="matrix(1,0,0,1,2012.678962109635,1946.1674192076916) translate(0 20.444444444444443)"/><use xlink:href="#q" transform="matrix(1,0,0,1,2012.678962109635,1946.1674192076916) translate(41.85185185185185 20.444444444444443)"/><use xlink:href="#r" transform="matrix(1,0,0,1,2012.678962109635,1983.1674192076916) translate(0 20.444444444444443)"/><use xlink:href="#s" transform="matrix(1,0,0,1,2012.678962109635,2020.1674192076916) translate(0 20.444444444444443)"/><use xlink:href="#t" transform="matrix(1,0,0,1,2012.678962109635,2057.1674192076916) translate(72.525 17.1)"/><use xlink:href="#u" transform="matrix(1,0,0,1,2012.678962109635,2089.1674192076916) translate(64.55000000000001 17.1)"/><use xlink:href="#v" transform="matrix(1,0,0,1,2012.678962109635,2121.1674192076916) translate(82.525 17.1)"/><use xlink:href="#w" transform="matrix(1,0,0,1,2012.678962109635,2153.1674192076916) translate(75.5 17.1)"/><use xlink:href="#x" transform="matrix(1,0,0,1,2012.678962109635,2185.1674192076916) translate(0 20.488888888888887)"/><path d="M1940 2366c0-3.3 2.7-6 6-6h188c3.3 0 6 2.7 6 6v65c0 3.3-2.7 6-6 6h-188c-3.3 0-6-2.7-6-6z" fill="#fff"/><path d="M1940 2366c0-3.3 2.7-6 6-6h188c3.3 0 6 2.7 6 6v65c0 3.3-2.7 6-6 6h-188c-3.3 0-6-2.7-6-6zM1940 2400h200" stroke="#5e5e5e" stroke-width="3" fill="none"/><use xlink:href="#y" transform="matrix(1,0,0,1,1950,2360) translate(68.45679012345678 24.444444444444443)"/><use xlink:href="#z" transform="matrix(1,0,0,1,1945,2402.5) translate(16.569135802469148 20.488888888888887)"/><path d="M2163.4 2317.5h-2v-37h2zm0-58.33h-2v-19.5h2z" stroke="#5e5e5e" stroke-width=".05" fill="#5e5e5e"/><path d="M2167.03 2238.67h-9.27l4.64-14.27z" fill="#fff"/><path d="M2168.4 2239.67h-12l6-18.5zm-9.26-2h6.52l-3.26-10.03zM2163.4 2318.5h-2v-1.03h2z" stroke="#5e5e5e" stroke-width=".05" fill="#5e5e5e"/><use xlink:href="#A" transform="matrix(1,0,0,1,2145.708210447244,2259.1670429371793) translate(0.004999999999999005 14.222222222222223)"/><path d="M920 2393.33c0 33.14-35.82 60-80 60s-80-26.86-80-60c0-33.13 35.82-60 80-60s80 26.87 80 60z" stroke="#5e5e5e" stroke-width="3" fill="#fff"/><use xlink:href="#B" transform="matrix(1,0,0,1,760,2333.3325807923084) translate(71.3938888888889 62.77777777777778)"/><path d="M1805.68 2381h-43.18v-2h43.18zm131.82 0h-43.18v-2h43.18z" stroke="#5e5e5e" stroke-width=".05" fill="#5e5e5e"/><path d="M1762.53 2381h-1.06l.03-.98v-.43l-.02-.6h1.05z" fill="#5e5e5e"/><path d="M1762.55 2381.03h-1.1l.03-1v-.44l-.03-.63h1.1zm-1.05-2l.02.56v.42l-.02.95h1v-1.94z" stroke="#5e5e5e" stroke-width=".05" fill="#5e5e5e"/><path d="M1938.5 2381h-1.03v-2h1.03z" fill="#5e5e5e"/><path d="M1938.53 2381.03h-1.08v-2.06h1.08zm-1.03-2v1.94h.97v-1.94z" stroke="#5e5e5e" stroke-width=".05" fill="#5e5e5e"/><use xlink:href="#C" transform="matrix(1,0,0,1,1805.6790187806307,2369.3333333333335) translate(0.005000000000002558 14.222222222222223)"/><use xlink:href="#D" transform="matrix(1,0,0,1,1805.6790187806307,2369.3333333333335) translate(52.20253086419754 14.222222222222223)"/><path d="M630.8 2394.33H581v-2h49.8zm126.7 0h-49.8v-2h49.8z" stroke="#5e5e5e" stroke-width=".05" fill="#5e5e5e"/><path d="M758.5 2393.3v.45l.02.58h-1.05v-2h1.06z" fill="#5e5e5e"/><path d="M758.52 2393.3v.45l.03.6h-1.1v-2.04h1.1zm-1.02-.94v1.95h1l-.02-.55v-.44l.02-.94zM581.03 2394.33H580v-2h1.03z" stroke="#5e5e5e" stroke-width=".05" fill="#5e5e5e"/><use xlink:href="#c" transform="matrix(1,0,0,1,630.8055491206038,2382.665914125642) translate(0.005000000000002558 14.222222222222223)"/><use xlink:href="#E" transform="matrix(1,0,0,1,630.8055491206038,2382.665914125642) translate(19.75808641975309 14.222222222222223)"/><use xlink:href="#F" transform="matrix(1,0,0,1,630.8055491206038,2382.665914125642) translate(40.44944444444445 14.222222222222223)"/><path d="M2167.73 2366c0-3.3 2.7-6 6-6h248c3.32 0 6 2.7 6 6v92c0 3.3-2.68 6-6 6h-248c-3.3 0-6-2.7-6-6z" fill="#fff"/><path d="M2167.73 2366c0-3.3 2.7-6 6-6h248c3.32 0 6 2.7 6 6v92c0 3.3-2.68 6-6 6h-248c-3.3 0-6-2.7-6-6zM2167.73 2400h260" stroke="#5e5e5e" stroke-width="3" fill="none"/><use xlink:href="#G" transform="matrix(1,0,0,1,2177.7329018052687,2360) translate(66.94444444444443 24.444444444444443)"/><use xlink:href="#H" transform="matrix(1,0,0,1,2172.7329018052687,2402.5) translate(10.969753086419786 33.98888888888889)"/><use xlink:href="#I" transform="matrix(1,0,0,1,2172.7329018052687,2402.5) translate(193.01913580246912 33.98888888888889)"/><path d="M2039.76 2357.5v-33c0-3.3 2.68-6 6-6h245.97c3.32 0 6 2.7 6 6v33" stroke="#5e5e5e" stroke-width="2" fill="none"/><path d="M2040.76 2358.5h-2v-1.03h2zM2298.73 2358.5h-2v-1.03h2z" stroke="#5e5e5e" stroke-width=".05" fill="#5e5e5e"/><path d="M1080 2236.5c0-3.3 2.7-6 6-6h268c3.3 0 6 2.7 6 6v287c0 3.3-2.7 6-6 6h-268c-3.3 0-6-2.7-6-6z" fill="#fff"/><path d="M1080 2236.5c0-3.3 2.7-6 6-6h268c3.3 0 6 2.7 6 6v287c0 3.3-2.7 6-6 6h-268c-3.3 0-6-2.7-6-6zM1080 2270.5h280" stroke="#5e5e5e" stroke-width="3" fill="none"/><use xlink:href="#J" transform="matrix(1,0,0,1,1090,2230.5) translate(102.9320987654321 24.444444444444443)"/><use xlink:href="#K" transform="matrix(1,0,0,1,1085,2273) translate(0 20.488888888888887)"/><use xlink:href="#L" transform="matrix(1,0,0,1,1085,2310) translate(0 20.444444444444443)"/><use xlink:href="#M" transform="matrix(1,0,0,1,1085,2347) translate(0 20.444444444444443)"/><use xlink:href="#N" transform="matrix(1,0,0,1,1085,2384) translate(0 20.488888888888887)"/><use xlink:href="#O" transform="matrix(1,0,0,1,1085,2421) translate(0 20.488888888888887)"/><use xlink:href="#P" transform="matrix(1,0,0,1,1085,2458) translate(0 20.488888888888887)"/><use xlink:href="#Q" transform="matrix(1,0,0,1,1085,2495) translate(0 20.488888888888887)"/><path d="M1077.5 2399.2v2h-11.18v-2zM922 2401v-2h11.2v2z" stroke="#5e5e5e" stroke-width=".05" fill="#5e5e5e"/><path d="M1078.5 2401.2h-1.03v-2h1.03z" fill="#5e5e5e"/><path d="M1078.53 2401.24h-1.08v-2.05h1.08zm-1.03-2v1.95h.97v-1.96z" stroke="#5e5e5e" stroke-width=".05" fill="#5e5e5e"/><path d="M922.04 2401h-1.2l.3-1.78v-.22h.9z" fill="#5e5e5e"/><path d="M922.06 2401.03h-1.24l.3-1.8v-.26h.94zm-.88-2l-.02.2-.28 1.74H922v-1.94z" stroke="#5e5e5e" stroke-width=".05" fill="#5e5e5e"/><use xlink:href="#c" transform="matrix(1,0,0,1,933.186995664083,2389.4404761904766) translate(0.0049999999999954525 14.222222222222223)"/><use xlink:href="#R" transform="matrix(1,0,0,1,933.186995664083,2389.4404761904766) translate(19.758086419753084 14.222222222222223)"/><use xlink:href="#e" transform="matrix(1,0,0,1,933.186995664083,2389.4404761904766) translate(71.06672839506173 14.222222222222223)"/><use xlink:href="#S" transform="matrix(1,0,0,1,933.186995664083,2389.4404761904766) translate(96.69635802469136 14.222222222222223)"/><path d="M1760 2380c0 33.14-35.82 60-80 60s-80-26.86-80-60 35.82-60 80-60 80 26.86 80 60z" stroke="#5e5e5e" stroke-width="3" fill="#fff"/><use xlink:href="#T" transform="matrix(1,0,0,1,1600,2320) translate(44.9124074074074 62.77777777777778)"/><path d="M1407.58 2390.6h-45.08v-2h45.08zm189.92-9.6h-45.08v-2h45.08z" stroke="#5e5e5e" stroke-width=".05" fill="#5e5e5e"/><path d="M1598.5 2379.98v.43l.02.6h-1.05v-2h1.06z" fill="#5e5e5e"/><path d="M1598.52 2379.98v.43l.03.63h-1.1v-2.06h1.1zm-1.02-.95v1.94h1l-.02-.56v-.42l.02-.95z" stroke="#5e5e5e" stroke-width=".05" fill="#5e5e5e"/><path d="M1362.53 2390.6h-1.03v-2h1.03z" fill="#5e5e5e"/><path d="M1362.55 2390.63h-1.08v-2.05h1.08zm-1.02-2v1.95h.97v-1.95z" stroke="#5e5e5e" stroke-width=".05" fill="#5e5e5e"/><use xlink:href="#c" transform="matrix(1,0,0,1,1407.5802404786284,2374.1379241528116) translate(0.0049999999999954525 14.222222222222223)"/><use xlink:href="#U" transform="matrix(1,0,0,1,1407.5802404786284,2374.1379241528116) translate(19.758086419753084 14.222222222222223)"/><use xlink:href="#e" transform="matrix(1,0,0,1,1407.5802404786284,2374.1379241528116) translate(82.77043209876544 14.222222222222223)"/><use xlink:href="#V" transform="matrix(1,0,0,1,1407.5802404786284,2374.1379241528116) translate(108.40006172839507 14.222222222222223)"/><path d="M1100 1826c0-3.3 2.7-6 6-6h228c3.3 0 6 2.7 6 6v134c0 3.3-2.7 6-6 6h-228c-3.3 0-6-2.7-6-6z" fill="#fff"/><path d="M1100 1826c0-3.3 2.7-6 6-6h228c3.3 0 6 2.7 6 6v134c0 3.3-2.7 6-6 6h-228c-3.3 0-6-2.7-6-6zM1100 1860h240" stroke="#5e5e5e" stroke-width="3" fill="none"/><use xlink:href="#W" transform="matrix(1,0,0,1,1110,1820) translate(77.37654320987656 24.444444444444443)"/><use xlink:href="#X" transform="matrix(1,0,0,1,1105,1862.5) translate(0 20.444444444444443)"/><use xlink:href="#Y" transform="matrix(1,0,0,1,1105,1899.5) translate(0 20.444444444444443)"/><use xlink:href="#Z" transform="matrix(1,0,0,1,1105,1936.5) translate(0 17.1)"/><path d="M481 2617.5h-2v-60.92h2zm0-82.25h-2v-43.42h2z" stroke="#5e5e5e" stroke-width=".05" fill="#5e5e5e"/><path d="M484.64 2490.83h-9.28l4.64-14.26z" fill="#fff"/><path d="M486 2491.83h-12l6-18.5zm-9.26-2h6.52L480 2479.8zM481 2618.5h-2v-1.03h2z" stroke="#5e5e5e" stroke-width=".05" fill="#5e5e5e"/><use xlink:href="#aa" transform="matrix(1,0,0,1,463.77777777777777,2535.2496237294877) translate(0.004999999999999005 14.222222222222223)"/><path d="M1885.2 2632.5c0 33.14-35.8 60-80 60-44.17 0-80-26.86-80-60 0-33.13 35.83-60 80-60 44.2 0 80 26.87 80 60z" stroke="#5e5e5e" stroke-width="3" fill="#fff"/><use xlink:href="#ab" transform="matrix(1,0,0,1,1725.2092667981758,2572.507746280407) translate(41.14697530864196 62.77777777777778)"/><path d="M2128.93 2633.5H1887.7v-2h241.23zm169.8-6.86l-.92 3.4-2.52 2.54-3.4.93h-69.36v-2h69.08l2.64-.7 1.78-1.78.7-2.65V2466.5h2z" stroke="#5e5e5e" stroke-width=".05" fill="#5e5e5e"/><path d="M1887.73 2633.5h-1.05l.03-.97v-.44l-.02-.6h1.05z" fill="#5e5e5e"/><path d="M1887.76 2633.53h-1.1l.02-1v-.44l-.02-.62h1.1zm-1.05-2l.03.56v.43l-.03.95h1v-1.95z" stroke="#5e5e5e" stroke-width=".05" fill="#5e5e5e"/><path d="M2298.73 2466.53h-2v-1.03h2z" fill="#5e5e5e"/><path d="M2298.76 2466.55h-2.05v-1.08h2.06zm-2-1.03v.98h1.95v-.97z" stroke="#5e5e5e" stroke-width=".05" fill="#5e5e5e"/><use xlink:href="#ac" transform="matrix(1,0,0,1,2128.9348404200873,2621.8410796137405) translate(0.005000000000002558 14.222222222222223)"/><use xlink:href="#ad" transform="matrix(1,0,0,1,2128.9348404200873,2621.8410796137405) translate(57.14080246913581 14.222222222222223)"/><path d="M1221 2626.37l.7 2.65 1.8 1.77 2.63.7h176.1v2h-176.36l-3.42-.92-2.53-2.53-.92-3.4V2532h2zm501.7 5.14v2h-169.75v-2z" stroke="#5e5e5e" stroke-width=".05" fill="#5e5e5e"/><path d="M1723.7 2632.5v.42l.03.6h-1.05v-2h1.06z" fill="#5e5e5e"/><path d="M1723.73 2632.5v.42l.03.6h-1.1v-2.04h1.1zm-1.02-.97v1.95h1v-.56l-.02-.43.03-.97z" stroke="#5e5e5e" stroke-width=".05" fill="#5e5e5e"/><path d="M1221 2532.03h-2V2531h2z" fill="#5e5e5e"/><path d="M1221.03 2532.05h-2.06v-1.08h2.06zm-2-1.03v.98h1.94v-.97z" stroke="#5e5e5e" stroke-width=".05" fill="#5e5e5e"/><use xlink:href="#c" transform="matrix(1,0,0,1,1402.2294019646972,2621.8410796137405) translate(0.0049999999999954525 14.222222222222223)"/><use xlink:href="#ae" transform="matrix(1,0,0,1,1402.2294019646972,2621.8410796137405) translate(19.758086419753084 14.222222222222223)"/><use xlink:href="#e" transform="matrix(1,0,0,1,1402.2294019646972,2621.8410796137405) translate(87.7087037037037 14.222222222222223)"/><use xlink:href="#f" transform="matrix(1,0,0,1,1402.2294019646972,2621.8410796137405) translate(113.33833333333334 14.222222222222223)"/><path d="M1725.2 2698.5c0-3.3 2.7-6 6-6h148c3.32 0 6 2.7 6 6v28c0 3.32-2.68 6-6 6h-148c-3.3 0-6-2.68-6-6z" stroke="#5e5e5e" stroke-width="3" fill="#fff"/><use xlink:href="#af" transform="matrix(1,0,0,1,1725.2092667981758,2692.507746280407) translate(55.992654320987654 22.787777777777777)"/><path d="M1725.2 2738.5c0-3.3 2.7-6 6-6h148c3.32 0 6 2.7 6 6v28c0 3.32-2.68 6-6 6h-148c-3.3 0-6-2.68-6-6z" stroke="#5e5e5e" stroke-width="3" fill="#fff"/><use xlink:href="#ag" transform="matrix(1,0,0,1,1725.2092667981758,2732.507746280407) translate(38.09141975308642 22.787777777777777)"/><use xlink:href="#ah" transform="matrix(1,0,0,1,1725.2092667981758,2732.507746280407) translate(86.23956790123458 22.787777777777777)"/><path d="M1725.2 2778.5c0-3.3 2.7-6 6-6h148c3.32 0 6 2.7 6 6v28c0 3.32-2.68 6-6 6h-148c-3.3 0-6-2.68-6-6z" stroke="#5e5e5e" stroke-width="3" fill="#fff"/><use xlink:href="#ag" transform="matrix(1,0,0,1,1725.2092667981758,2772.507746280407) translate(31.301296296296293 22.787777777777777)"/><use xlink:href="#ai" transform="matrix(1,0,0,1,1725.2092667981758,2772.507746280407) translate(79.44944444444445 22.787777777777777)"/><path d="M1191.95 2078.47c0 21.24-35.82 38.46-80 38.46-44.2 0-80-17.22-80-38.46 0-21.25 35.8-38.47 80-38.47 44.18 0 80 17.22 80 38.47z" stroke="#5e5e5e" stroke-width="3" fill="#fff"/><use xlink:href="#aj" transform="matrix(1,0,0,1,1031.947015525425,2040) translate(57.8445061728395 41.84027777777778)"/><path d="M1112.95 2228h-2v-43.62h2zm0-64.95h-2v-43.62h2z" stroke="#5e5e5e" stroke-width=".05" fill="#5e5e5e"/><path d="M1111.93 2118.43h1.02v1.03h-2v-1.06z" fill="#5e5e5e"/><path d="M1111.93 2118.4h1.04v1.08h-2.05v-1.1zm-.96 1.03h1.95v-.98h-1l-.95-.02z" stroke="#5e5e5e" stroke-width=".05" fill="#5e5e5e"/><path d="M1112.95 2229h-2v-1.03h2z" fill="#5e5e5e"/><path d="M1112.97 2229.03h-2.05v-1.08h2.05zm-2-1.03v.97h1.95v-.97z" stroke="#5e5e5e" stroke-width=".05" fill="#5e5e5e"/><g><use xlink:href="#ak" transform="matrix(1,0,0,1,1060.2186204636967,2163.0496297245877) translate(0.005000000000002558 14.222222222222223)"/><use xlink:href="#al" transform="matrix(1,0,0,1,1060.2186204636967,2163.0496297245877) translate(46.325987654321 14.222222222222223)"/><use xlink:href="#S" transform="matrix(1,0,0,1,1060.2186204636967,2163.0496297245877) translate(67.01734567901235 14.222222222222223)"/></g><path d="M1112.95 2037.5h-2v-23.83h2zm0-45.17h-2v-23.83h2z" stroke="#5e5e5e" stroke-width=".05" fill="#5e5e5e"/><path d="M1112.95 2038.53l-.98-.03h-1.02v-1.03h2z" fill="#5e5e5e"/><path d="M1112.97 2038.56l-1-.04h-1.05v-1.07h2.05zm-2-1.06v.98h1l.95.02v-1z" stroke="#5e5e5e" stroke-width=".05" fill="#5e5e5e"/><path d="M1112.95 1968.53h-2v-1.03h2z" fill="#5e5e5e"/><path d="M1112.97 1968.55h-2.05v-1.08h2.05zm-2-1.02v.97h1.95v-.97z" stroke="#5e5e5e" stroke-width=".05" fill="#5e5e5e"/><g><use xlink:href="#c" transform="matrix(1,0,0,1,1054.3420772538202,1992.3333269420789) translate(0.005000000000002558 14.222222222222223)"/><use xlink:href="#am" transform="matrix(1,0,0,1,1054.3420772538202,1992.3333269420789) translate(19.75808641975309 14.222222222222223)"/><use xlink:href="#an" transform="matrix(1,0,0,1,1054.3420772538202,1992.3333269420789) translate(56.20253086419754 14.222222222222223)"/><use xlink:href="#f" transform="matrix(1,0,0,1,1054.3420772538202,1992.3333269420789) translate(77.83216049382716 14.222222222222223)"/></g><path d="M1368.15 2078.47c0 21.24-35.82 38.46-80 38.46s-80-17.22-80-38.46c0-21.25 35.82-38.47 80-38.47s80 17.22 80 38.47z" stroke="#5e5e5e" stroke-width="3" fill="#fff"/><g><use xlink:href="#ao" transform="matrix(1,0,0,1,1208.1510111648079,2040) translate(70.74574074074074 41.84027777777778)"/></g><path d="M1289.15 2228h-2v-43.62h2zm0-64.95h-2v-43.62h2z" stroke="#5e5e5e" stroke-width=".05" fill="#5e5e5e"/><path d="M1288.13 2118.43h1.02v1.03h-2v-1.06z" fill="#5e5e5e"/><path d="M1288.13 2118.4h1.05v1.08h-2.05v-1.1zm-.95 1.03h1.95v-.98h-1l-.95-.02z" stroke="#5e5e5e" stroke-width=".05" fill="#5e5e5e"/><path d="M1289.15 2229h-2v-1.03h2z" fill="#5e5e5e"/><path d="M1289.18 2229.03h-2.05v-1.08h2.05zm-2-1.03v.97h1.95v-.97z" stroke="#5e5e5e" stroke-width=".05" fill="#5e5e5e"/><g><use xlink:href="#ap" transform="matrix(1,0,0,1,1232.9658259796227,2163.0496297245877) translate(0.005000000000002558 14.222222222222223)"/><use xlink:href="#al" transform="matrix(1,0,0,1,1232.9658259796227,2163.0496297245877) translate(53.23956790123458 14.222222222222223)"/><use xlink:href="#S" transform="matrix(1,0,0,1,1232.9658259796227,2163.0496297245877) translate(73.93092592592595 14.222222222222223)"/></g><path d="M1289.15 2037.5h-2v-24.58h2zm0-45.92h-2V1967h2z" stroke="#5e5e5e" stroke-width=".05" fill="#5e5e5e"/><path d="M1289.15 2038.53l-.98-.03h-1.02v-1.03h2z" fill="#5e5e5e"/><path d="M1289.18 2038.56l-1-.04h-1.05v-1.07h2.05zm-2-1.06v.98h1l.95.02v-1zM1289.15 1967.03h-2V1966h2z" stroke="#5e5e5e" stroke-width=".05" fill="#5e5e5e"/><g><use xlink:href="#c" transform="matrix(1,0,0,1,1227.0892827697462,1991.5833269420789) translate(0.005000000000002558 14.222222222222223)"/><use xlink:href="#aq" transform="matrix(1,0,0,1,1227.0892827697462,1991.5833269420789) translate(19.75808641975309 14.222222222222223)"/><use xlink:href="#an" transform="matrix(1,0,0,1,1227.0892827697462,1991.5833269420789) translate(63.116111111111124 14.222222222222223)"/><use xlink:href="#f" transform="matrix(1,0,0,1,1227.0892827697462,1991.5833269420789) translate(84.74574074074076 14.222222222222223)"/></g><defs><path fill="#333" d="M212-179c-10-28-35-45-73-45-59 0-87 40-87 99 0 60 29 101 89 101 43 0 62-24 78-52l27 14C228-24 195 4 139 4 59 4 22-46 18-125c-6-104 99-153 187-111 19 9 31 26 39 46" id="ar"/><path fill="#333" d="M100-194c62-1 85 37 85 99 1 63-27 99-86 99S16-35 15-95c0-66 28-99 85-99zM99-20c44 1 53-31 53-75 0-43-8-75-51-75s-53 32-53 75 10 74 51 75" id="as"/><path fill="#333" d="M210-169c-67 3-38 105-44 169h-31v-121c0-29-5-50-35-48C34-165 62-65 56 0H25l-1-190h30c1 10-1 24 2 32 10-44 99-50 107 0 11-21 27-35 58-36 85-2 47 119 55 194h-31v-121c0-29-5-49-35-48" id="at"/><path fill="#333" d="M115-194c55 1 70 41 70 98S169 2 115 4C84 4 66-9 55-30l1 105H24l-1-265h31l2 30c10-21 28-34 59-34zm-8 174c40 0 45-34 45-75s-6-73-45-74c-42 0-51 32-51 76 0 43 10 73 51 73" id="au"/><path fill="#333" d="M141-36C126-15 110 5 73 4 37 3 15-17 15-53c-1-64 63-63 125-63 3-35-9-54-41-54-24 1-41 7-42 31l-33-3c5-37 33-52 76-52 45 0 72 20 72 64v82c-1 20 7 32 28 27v20c-31 9-61-2-59-35zM48-53c0 20 12 33 32 33 41-3 63-29 60-74-43 2-92-5-92 41" id="av"/><path fill="#333" d="M117-194c89-4 53 116 60 194h-32v-121c0-31-8-49-39-48C34-167 62-67 57 0H25l-1-190h30c1 10-1 24 2 32 11-22 29-35 61-36" id="aw"/><path fill="#333" d="M179-190L93 31C79 59 56 82 12 73V49c39 6 53-20 64-50L1-190h34L92-34l54-156h33" id="ax"/><g id="a"><use transform="matrix(0.06172839506172839,0,0,0.06172839506172839,0,0)" xlink:href="#ar"/><use transform="matrix(0.06172839506172839,0,0,0.06172839506172839,15.987654320987653,0)" xlink:href="#as"/><use transform="matrix(0.06172839506172839,0,0,0.06172839506172839,28.333333333333332,0)" xlink:href="#at"/><use transform="matrix(0.06172839506172839,0,0,0.06172839506172839,46.79012345679012,0)" xlink:href="#au"/><use transform="matrix(0.06172839506172839,0,0,0.06172839506172839,59.1358024691358,0)" xlink:href="#av"/><use transform="matrix(0.06172839506172839,0,0,0.06172839506172839,71.48148148148148,0)" xlink:href="#aw"/><use transform="matrix(0.06172839506172839,0,0,0.06172839506172839,83.82716049382717,0)" xlink:href="#ax"/></g><path fill="#333" d="M206 0h-36l-40-164L89 0H53L-1-190h32L70-26l43-164h34l41 164 42-164h31" id="ay"/><path fill="#333" d="M100-194c63 0 86 42 84 106H49c0 40 14 67 53 68 26 1 43-12 49-29l28 8c-11 28-37 45-77 45C44 4 14-33 15-96c1-61 26-98 85-98zm52 81c6-60-76-77-97-28-3 7-6 17-6 28h103" id="az"/><path fill="#333" d="M114-163C36-179 61-72 57 0H25l-1-190h30c1 12-1 29 2 39 6-27 23-49 58-41v29" id="aA"/><path fill="#333" d="M135-143c-3-34-86-38-87 0 15 53 115 12 119 90S17 21 10-45l28-5c4 36 97 45 98 0-10-56-113-15-118-90-4-57 82-63 122-42 12 7 21 19 24 35" id="aB"/><path fill="#333" d="M106-169C34-169 62-67 57 0H25v-261h32l-1 103c12-21 28-36 61-36 89 0 53 116 60 194h-32v-121c2-32-8-49-39-48" id="aC"/><path fill="#333" d="M24-231v-30h32v30H24zM24 0v-190h32V0H24" id="aD"/><g id="b"><use transform="matrix(0.06172839506172839,0,0,0.06172839506172839,0,0)" xlink:href="#as"/><use transform="matrix(0.06172839506172839,0,0,0.06172839506172839,12.345679012345679,0)" xlink:href="#ay"/><use transform="matrix(0.06172839506172839,0,0,0.06172839506172839,28.333333333333332,0)" xlink:href="#aw"/><use transform="matrix(0.06172839506172839,0,0,0.06172839506172839,40.67901234567901,0)" xlink:href="#az"/><use transform="matrix(0.06172839506172839,0,0,0.06172839506172839,53.02469135802469,0)" xlink:href="#aA"/><use transform="matrix(0.06172839506172839,0,0,0.06172839506172839,60.37037037037037,0)" xlink:href="#aB"/><use transform="matrix(0.06172839506172839,0,0,0.06172839506172839,71.48148148148148,0)" xlink:href="#aC"/><use transform="matrix(0.06172839506172839,0,0,0.06172839506172839,83.82716049382717,0)" xlink:href="#aD"/><use transform="matrix(0.06172839506172839,0,0,0.06172839506172839,88.70370370370371,0)" xlink:href="#au"/></g><path fill="#333" d="M25-224v-37h50v37H25zM25 0v-190h50V0H25" id="aE"/><path fill="#333" d="M137-138c1-29-70-34-71-4 15 46 118 7 119 86 1 83-164 76-172 9l43-7c4 19 20 25 44 25 33 8 57-30 24-41C81-84 22-81 20-136c-2-80 154-74 161-7" id="aF"/><g id="c"><use transform="matrix(0.04938271604938272,0,0,0.04938271604938272,0,0)" xlink:href="#aE"/><use transform="matrix(0.04938271604938272,0,0,0.04938271604938272,4.938271604938272,0)" xlink:href="#aF"/></g><path fill="#333" d="M110-194c64 0 96 36 96 99 0 64-35 99-97 99-61 0-95-36-95-99 0-62 34-99 96-99zm-1 164c35 0 45-28 45-65 0-40-10-65-43-65-34 0-45 26-45 65 0 36 10 65 43 65" id="aG"/><path fill="#333" d="M231 0h-52l-39-155L100 0H48L-1-190h46L77-45c9-52 24-97 36-145h53l37 145 32-145h46" id="aH"/><path fill="#333" d="M135-194c87-1 58 113 63 194h-50c-7-57 23-157-34-157-59 0-34 97-39 157H25l-1-190h47c2 12-1 28 3 38 12-26 28-41 61-42" id="aI"/><path fill="#333" d="M185-48c-13 30-37 53-82 52C43 2 14-33 14-96s30-98 90-98c62 0 83 45 84 108H66c0 31 8 55 39 56 18 0 30-7 34-22zm-45-69c5-46-57-63-70-21-2 6-4 13-4 21h74" id="aJ"/><path fill="#333" d="M88-194c31-1 46 15 58 34l-1-101h50l1 261h-48c-2-10 0-23-3-31C134-8 116 4 84 4 32 4 16-41 15-95c0-56 19-97 73-99zm17 164c33 0 40-30 41-66 1-37-9-64-41-64s-38 30-39 65c0 43 13 65 39 65" id="aK"/><g id="d"><use transform="matrix(0.04938271604938272,0,0,0.04938271604938272,0,0)" xlink:href="#aG"/><use transform="matrix(0.04938271604938272,0,0,0.04938271604938272,10.814814814814815,0)" xlink:href="#aH"/><use transform="matrix(0.04938271604938272,0,0,0.04938271604938272,24.641975308641975,0)" xlink:href="#aI"/><use transform="matrix(0.04938271604938272,0,0,0.04938271604938272,35.45679012345679,0)" xlink:href="#aJ"/><use transform="matrix(0.04938271604938272,0,0,0.04938271604938272,45.333333333333336,0)" xlink:href="#aK"/></g><path fill="#333" d="M135-194c52 0 70 43 70 98 0 56-19 99-73 100-30 1-46-15-58-35L72 0H24l1-261h50v104c11-23 29-37 60-37zM114-30c31 0 40-27 40-66 0-37-7-63-39-63s-41 28-41 65c0 36 8 64 40 64" id="aL"/><path fill="#333" d="M123 10C108 53 80 86 19 72V37c35 8 53-11 59-39L3-190h52l48 148c12-52 28-100 44-148h51" id="aM"/><g id="e"><use transform="matrix(0.04938271604938272,0,0,0.04938271604938272,0,0)" xlink:href="#aL"/><use transform="matrix(0.04938271604938272,0,0,0.04938271604938272,10.814814814814815,0)" xlink:href="#aM"/></g><path fill="#333" d="M67-93c0 74 22 123 53 168H70C40 30 18-18 18-93s22-123 52-168h50c-32 44-53 94-53 168" id="aN"/><path fill="#333" d="M101-251c68 0 84 54 84 127C185-50 166 4 99 4S15-52 14-124c-1-75 17-127 87-127zm-1 216c37-5 36-46 36-89s4-89-36-89c-39 0-36 45-36 89 0 43-3 85 36 89" id="aO"/><path fill="#333" d="M76-54c-1 42 2 86-19 110H24C36 42 46 24 48 0H25v-54h51" id="aP"/><path fill="#333" d="M102-93c0 74-22 123-52 168H0C30 29 54-18 53-93c0-74-22-123-53-168h50c30 45 52 94 52 168" id="aQ"/><g id="f"><use transform="matrix(0.04938271604938272,0,0,0.04938271604938272,0,0)" xlink:href="#aN"/><use transform="matrix(0.04938271604938272,0,0,0.04938271604938272,5.8765432098765435,0)" xlink:href="#aO"/><use transform="matrix(0.04938271604938272,0,0,0.04938271604938272,15.753086419753087,0)" xlink:href="#aP"/><use transform="matrix(0.04938271604938272,0,0,0.04938271604938272,20.69135802469136,0)" xlink:href="#aI"/><use transform="matrix(0.04938271604938272,0,0,0.04938271604938272,31.506172839506174,0)" xlink:href="#aQ"/></g><g id="g"><use transform="matrix(0.04938271604938272,0,0,0.04938271604938272,0,0)" xlink:href="#aG"/><use transform="matrix(0.04938271604938272,0,0,0.04938271604938272,10.814814814814815,0)" xlink:href="#aH"/><use transform="matrix(0.04938271604938272,0,0,0.04938271604938272,24.641975308641975,0)" xlink:href="#aI"/><use transform="matrix(0.04938271604938272,0,0,0.04938271604938272,35.45679012345679,0)" xlink:href="#aF"/><use transform="matrix(0.04938271604938272,0,0,0.04938271604938272,45.333333333333336,0)" xlink:href="#aN"/></g><path fill="#333" d="M23 0v-37h61v-169l-59 37v-38l62-41h46v211h57V0H23" id="aR"/><g id="h"><use transform="matrix(0.04938271604938272,0,0,0.04938271604938272,0,0)" xlink:href="#aR"/><use transform="matrix(0.04938271604938272,0,0,0.04938271604938272,9.876543209876544,0)" xlink:href="#aP"/><use transform="matrix(0.04938271604938272,0,0,0.04938271604938272,14.814814814814817,0)" xlink:href="#aI"/><use transform="matrix(0.04938271604938272,0,0,0.04938271604938272,25.629629629629633,0)" xlink:href="#aQ"/></g><path fill="#333" d="M205 0l-28-72H64L36 0H1l101-248h38L239 0h-34zm-38-99l-47-123c-12 45-31 82-46 123h93" id="aS"/><path fill="#333" d="M96-169c-40 0-48 33-48 73s9 75 48 75c24 0 41-14 43-38l32 2c-6 37-31 61-74 61-59 0-76-41-82-99-10-93 101-131 147-64 4 7 5 14 7 22l-32 3c-4-21-16-35-41-35" id="aT"/><path fill="#333" d="M101-234c-31-9-42 10-38 44h38v23H63V0H32v-167H5v-23h27c-7-52 17-82 69-68v24" id="aU"/><path fill="#333" d="M59-47c-2 24 18 29 38 22v24C64 9 27 4 27-40v-127H5v-23h24l9-43h21v43h35v23H59v120" id="aV"/><g id="i"><use transform="matrix(0.06172839506172839,0,0,0.06172839506172839,0,0)" xlink:href="#aS"/><use transform="matrix(0.06172839506172839,0,0,0.06172839506172839,14.814814814814813,0)" xlink:href="#aD"/><use transform="matrix(0.06172839506172839,0,0,0.06172839506172839,19.691358024691354,0)" xlink:href="#aA"/><use transform="matrix(0.06172839506172839,0,0,0.06172839506172839,27.03703703703703,0)" xlink:href="#aT"/><use transform="matrix(0.06172839506172839,0,0,0.06172839506172839,38.14814814814814,0)" xlink:href="#aA"/><use transform="matrix(0.06172839506172839,0,0,0.06172839506172839,45.493827160493815,0)" xlink:href="#av"/><use transform="matrix(0.06172839506172839,0,0,0.06172839506172839,57.83950617283949,0)" xlink:href="#aU"/><use transform="matrix(0.06172839506172839,0,0,0.06172839506172839,64.01234567901233,0)" xlink:href="#aV"/></g><path fill="#333" d="M85-194c31 0 48 13 60 33l-1-100h32l1 261h-30c-2-10 0-23-3-31C134-8 116 4 85 4 32 4 16-35 15-94c0-66 23-100 70-100zm9 24c-40 0-46 34-46 75 0 40 6 74 45 74 42 0 51-32 51-76 0-42-9-74-50-73" id="aW"/><g id="j"><use transform="matrix(0.06172839506172839,0,0,0.06172839506172839,0,0)" xlink:href="#aD"/><use transform="matrix(0.06172839506172839,0,0,0.06172839506172839,4.876543209876543,0)" xlink:href="#aW"/><path fill="#333" d="M-1.1 1.54h19.43v1.63H-1.1z"/></g><path fill="#333" d="M24 0v-261h32V0H24" id="aX"/><g id="k"><use transform="matrix(0.06172839506172839,0,0,0.06172839506172839,0,0)" xlink:href="#aS"/><use transform="matrix(0.06172839506172839,0,0,0.06172839506172839,14.814814814814813,0)" xlink:href="#aD"/><use transform="matrix(0.06172839506172839,0,0,0.06172839506172839,19.691358024691354,0)" xlink:href="#aA"/><use transform="matrix(0.06172839506172839,0,0,0.06172839506172839,27.03703703703703,0)" xlink:href="#aX"/><use transform="matrix(0.06172839506172839,0,0,0.06172839506172839,31.91358024691358,0)" xlink:href="#aD"/><use transform="matrix(0.06172839506172839,0,0,0.06172839506172839,36.79012345679012,0)" xlink:href="#aw"/><use transform="matrix(0.06172839506172839,0,0,0.06172839506172839,49.1358024691358,0)" xlink:href="#az"/><use transform="matrix(0.06172839506172839,0,0,0.06172839506172839,61.481481481481474,0)" xlink:href="#aA"/></g><path fill="#333" d="M190 0L58-211 59 0H30v-248h39L202-35l-2-213h31V0h-41" id="aY"/><path fill="#333" d="M84 4C-5 8 30-112 23-190h32v120c0 31 7 50 39 49 72-2 45-101 50-169h31l1 190h-30c-1-10 1-25-2-33-11 22-28 36-60 37" id="aZ"/><path fill="#333" d="M115-194c53 0 69 39 70 98 0 66-23 100-70 100C84 3 66-7 56-30L54 0H23l1-261h32v101c10-23 28-34 59-34zm-8 174c40 0 45-34 45-75 0-40-5-75-45-74-42 0-51 32-51 76 0 43 10 73 51 73" id="ba"/><path fill="#333" d="M140-251c81 0 123 46 123 126C263-46 219 4 140 4 59 4 17-45 17-125s42-126 123-126zm0 227c63 0 89-41 89-101s-29-99-89-99c-61 0-89 39-89 99S79-25 140-24" id="bb"/><path fill="#333" d="M185-189c-5-48-123-54-124 2 14 75 158 14 163 119 3 78-121 87-175 55-17-10-28-26-33-46l33-7c5 56 141 63 141-1 0-78-155-14-162-118-5-82 145-84 179-34 5 7 8 16 11 25" id="bc"/><g id="l"><use transform="matrix(0.06172839506172839,0,0,0.06172839506172839,0,0)" xlink:href="#aY"/><use transform="matrix(0.06172839506172839,0,0,0.06172839506172839,15.987654320987653,0)" xlink:href="#aZ"/><use transform="matrix(0.06172839506172839,0,0,0.06172839506172839,28.333333333333332,0)" xlink:href="#at"/><use transform="matrix(0.06172839506172839,0,0,0.06172839506172839,46.79012345679012,0)" xlink:href="#ba"/><use transform="matrix(0.06172839506172839,0,0,0.06172839506172839,59.1358024691358,0)" xlink:href="#az"/><use transform="matrix(0.06172839506172839,0,0,0.06172839506172839,71.48148148148148,0)" xlink:href="#aA"/><use transform="matrix(0.06172839506172839,0,0,0.06172839506172839,78.82716049382717,0)" xlink:href="#bb"/><use transform="matrix(0.06172839506172839,0,0,0.06172839506172839,96.11111111111111,0)" xlink:href="#aU"/><use transform="matrix(0.06172839506172839,0,0,0.06172839506172839,102.28395061728395,0)" xlink:href="#bc"/><use transform="matrix(0.06172839506172839,0,0,0.06172839506172839,117.09876543209876,0)" xlink:href="#az"/><use transform="matrix(0.06172839506172839,0,0,0.06172839506172839,129.44444444444443,0)" xlink:href="#av"/><use transform="matrix(0.06172839506172839,0,0,0.06172839506172839,141.7901234567901,0)" xlink:href="#aV"/><use transform="matrix(0.06172839506172839,0,0,0.06172839506172839,147.96296296296293,0)" xlink:href="#aB"/></g><path fill="#333" d="M177-190C167-65 218 103 67 71c-23-6-38-20-44-43l32-5c15 47 100 32 89-28v-30C133-14 115 1 83 1 29 1 15-40 15-95c0-56 16-97 71-98 29-1 48 16 59 35 1-10 0-23 2-32h30zM94-22c36 0 50-32 50-73 0-42-14-75-50-75-39 0-46 34-46 75s6 73 46 73" id="bd"/><g id="m"><use transform="matrix(0.06172839506172839,0,0,0.06172839506172839,0,0)" xlink:href="#aT"/><use transform="matrix(0.06172839506172839,0,0,0.06172839506172839,11.11111111111111,0)" xlink:href="#av"/><use transform="matrix(0.06172839506172839,0,0,0.06172839506172839,23.45679012345679,0)" xlink:href="#aA"/><use transform="matrix(0.06172839506172839,0,0,0.06172839506172839,30.80246913580247,0)" xlink:href="#bd"/><use transform="matrix(0.06172839506172839,0,0,0.06172839506172839,43.148148148148145,0)" xlink:href="#as"/></g><path fill="#333" d="M240 0l2-218c-23 76-54 145-80 218h-23L58-218 59 0H30v-248h44l77 211c21-75 51-140 76-211h43V0h-30" id="be"/><path fill="#333" d="M141 0L90-78 38 0H4l68-98-65-92h35l48 74 47-74h35l-64 92 68 98h-35" id="bf"/><path fill="#333" d="M127-220V0H93v-220H8v-28h204v28h-85" id="bg"/><g id="n"><use transform="matrix(0.06172839506172839,0,0,0.06172839506172839,0,0)" xlink:href="#be"/><use transform="matrix(0.06172839506172839,0,0,0.06172839506172839,18.456790123456788,0)" xlink:href="#av"/><use transform="matrix(0.06172839506172839,0,0,0.06172839506172839,30.80246913580247,0)" xlink:href="#bf"/><use transform="matrix(0.06172839506172839,0,0,0.06172839506172839,41.91358024691358,0)" xlink:href="#aD"/><use transform="matrix(0.06172839506172839,0,0,0.06172839506172839,46.79012345679013,0)" xlink:href="#at"/><use transform="matrix(0.06172839506172839,0,0,0.06172839506172839,65.24691358024691,0)" xlink:href="#aZ"/><use transform="matrix(0.06172839506172839,0,0,0.06172839506172839,77.5925925925926,0)" xlink:href="#at"/><use transform="matrix(0.06172839506172839,0,0,0.06172839506172839,96.04938271604938,0)" xlink:href="#bg"/><use transform="matrix(0.06172839506172839,0,0,0.06172839506172839,107.09876543209876,0)" xlink:href="#as"/><use transform="matrix(0.06172839506172839,0,0,0.06172839506172839,119.44444444444444,0)" xlink:href="#aw"/><use transform="matrix(0.06172839506172839,0,0,0.06172839506172839,131.79012345679013,0)" xlink:href="#aw"/><use transform="matrix(0.06172839506172839,0,0,0.06172839506172839,144.1358024691358,0)" xlink:href="#av"/><use transform="matrix(0.06172839506172839,0,0,0.06172839506172839,156.48148148148147,0)" xlink:href="#bd"/><use transform="matrix(0.06172839506172839,0,0,0.06172839506172839,168.82716049382714,0)" xlink:href="#az"/><path fill="#333" d="M-1.1 1.54h183.4v1.63H-1.1z"/></g><path fill="#333" d="M30-248c87 1 191-15 191 75 0 78-77 80-158 76V0H30v-248zm33 125c57 0 124 11 124-50 0-59-68-47-124-48v98" id="bh"/><g id="o"><use transform="matrix(0.061728395061728385,0,0,0.061728395061728385,0,0)" xlink:href="#bh"/><use transform="matrix(0.061728395061728385,0,0,0.061728395061728385,14.814814814814813,0)" xlink:href="#az"/><use transform="matrix(0.061728395061728385,0,0,0.061728395061728385,27.16049382716049,0)" xlink:href="#aA"/><use transform="matrix(0.061728395061728385,0,0,0.061728395061728385,34.50617283950617,0)" xlink:href="#aB"/><use transform="matrix(0.061728395061728385,0,0,0.061728395061728385,45.61728395061728,0)" xlink:href="#as"/><use transform="matrix(0.061728395061728385,0,0,0.061728395061728385,57.962962962962955,0)" xlink:href="#aw"/></g><g id="p"><use transform="matrix(0.061728395061728385,0,0,0.061728395061728385,0,0)" xlink:href="#aU"/><use transform="matrix(0.061728395061728385,0,0,0.061728395061728385,6.1728395061728385,0)" xlink:href="#aD"/><use transform="matrix(0.061728395061728385,0,0,0.061728395061728385,11.049382716049381,0)" xlink:href="#aA"/><use transform="matrix(0.061728395061728385,0,0,0.061728395061728385,18.39506172839506,0)" xlink:href="#aB"/><use transform="matrix(0.061728395061728385,0,0,0.061728395061728385,29.50617283950617,0)" xlink:href="#aV"/></g><g id="q"><use transform="matrix(0.061728395061728385,0,0,0.061728395061728385,0,0)" xlink:href="#aw"/><use transform="matrix(0.061728395061728385,0,0,0.061728395061728385,12.345679012345677,0)" xlink:href="#av"/><use transform="matrix(0.061728395061728385,0,0,0.061728395061728385,24.691358024691354,0)" xlink:href="#at"/><use transform="matrix(0.061728395061728385,0,0,0.061728395061728385,43.14814814814814,0)" xlink:href="#az"/></g><g id="r"><use transform="matrix(0.061728395061728385,0,0,0.061728395061728385,0,0)" xlink:href="#aw"/><use transform="matrix(0.061728395061728385,0,0,0.061728395061728385,12.345679012345677,0)" xlink:href="#av"/><use transform="matrix(0.061728395061728385,0,0,0.061728395061728385,24.691358024691354,0)" xlink:href="#at"/><use transform="matrix(0.061728395061728385,0,0,0.061728395061728385,43.14814814814814,0)" xlink:href="#az"/></g><g id="s"><use transform="matrix(0.061728395061728385,0,0,0.061728395061728385,0,0)" xlink:href="#av"/><use transform="matrix(0.061728395061728385,0,0,0.061728395061728385,12.345679012345677,0)" xlink:href="#aW"/><use transform="matrix(0.061728395061728385,0,0,0.061728395061728385,24.691358024691354,0)" xlink:href="#aA"/><use transform="matrix(0.061728395061728385,0,0,0.061728395061728385,32.03703703703703,0)" xlink:href="#az"/><use transform="matrix(0.061728395061728385,0,0,0.061728395061728385,44.38271604938271,0)" xlink:href="#aB"/><use transform="matrix(0.061728395061728385,0,0,0.061728395061728385,55.493827160493815,0)" xlink:href="#aB"/></g><path d="M135-143c-3-34-86-38-87 0 15 53 115 12 119 90S17 21 10-45l28-5c4 36 97 45 98 0-10-56-113-15-118-90-4-57 82-63 122-42 12 7 21 19 24 35" id="bi"/><path d="M59-47c-2 24 18 29 38 22v24C64 9 27 4 27-40v-127H5v-23h24l9-43h21v43h35v23H59v120" id="bj"/><path d="M114-163C36-179 61-72 57 0H25l-1-190h30c1 12-1 29 2 39 6-27 23-49 58-41v29" id="bk"/><path d="M100-194c63 0 86 42 84 106H49c0 40 14 67 53 68 26 1 43-12 49-29l28 8c-11 28-37 45-77 45C44 4 14-33 15-96c1-61 26-98 85-98zm52 81c6-60-76-77-97-28-3 7-6 17-6 28h103" id="bl"/><g id="t"><use transform="matrix(0.04999999999999999,0,0,0.04999999999999999,0,0)" xlink:href="#bi"/><use transform="matrix(0.04999999999999999,0,0,0.04999999999999999,8.999999999999998,0)" xlink:href="#bj"/><use transform="matrix(0.04999999999999999,0,0,0.04999999999999999,13.999999999999996,0)" xlink:href="#bk"/><use transform="matrix(0.04999999999999999,0,0,0.04999999999999999,19.949999999999996,0)" xlink:href="#bl"/><use transform="matrix(0.04999999999999999,0,0,0.04999999999999999,29.949999999999992,0)" xlink:href="#bl"/><use transform="matrix(0.04999999999999999,0,0,0.04999999999999999,39.949999999999996,0)" xlink:href="#bj"/></g><path d="M117-194c89-4 53 116 60 194h-32v-121c0-31-8-49-39-48C34-167 62-67 57 0H25l-1-190h30c1 10-1 24 2 32 11-22 29-35 61-36" id="bm"/><path d="M84 4C-5 8 30-112 23-190h32v120c0 31 7 50 39 49 72-2 45-101 50-169h31l1 190h-30c-1-10 1-25-2-33-11 22-28 36-60 37" id="bn"/><path d="M210-169c-67 3-38 105-44 169h-31v-121c0-29-5-50-35-48C34-165 62-65 56 0H25l-1-190h30c1 10-1 24 2 32 10-44 99-50 107 0 11-21 27-35 58-36 85-2 47 119 55 194h-31v-121c0-29-5-49-35-48" id="bo"/><path d="M115-194c53 0 69 39 70 98 0 66-23 100-70 100C84 3 66-7 56-30L54 0H23l1-261h32v101c10-23 28-34 59-34zm-8 174c40 0 45-34 45-75 0-40-5-75-45-74-42 0-51 32-51 76 0 43 10 73 51 73" id="bp"/><g id="u"><use transform="matrix(0.04999999999999999,0,0,0.04999999999999999,0,0)" xlink:href="#bm"/><use transform="matrix(0.04999999999999999,0,0,0.04999999999999999,9.999999999999998,0)" xlink:href="#bn"/><use transform="matrix(0.04999999999999999,0,0,0.04999999999999999,19.999999999999996,0)" xlink:href="#bo"/><use transform="matrix(0.04999999999999999,0,0,0.04999999999999999,34.949999999999996,0)" xlink:href="#bp"/><use transform="matrix(0.04999999999999999,0,0,0.04999999999999999,44.949999999999996,0)" xlink:href="#bl"/><use transform="matrix(0.04999999999999999,0,0,0.04999999999999999,54.949999999999996,0)" xlink:href="#bk"/></g><path d="M30-248c87 1 191-15 191 75 0 78-77 80-158 76V0H30v-248zm33 125c57 0 124 11 124-50 0-59-68-47-124-48v98" id="bq"/><path d="M212-179c-10-28-35-45-73-45-59 0-87 40-87 99 0 60 29 101 89 101 43 0 62-24 78-52l27 14C228-24 195 4 139 4 59 4 22-46 18-125c-6-104 99-153 187-111 19 9 31 26 39 46" id="br"/><g id="v"><use transform="matrix(0.04999999999999999,0,0,0.04999999999999999,0,0)" xlink:href="#bq"/><use transform="matrix(0.04999999999999999,0,0,0.04999999999999999,11.999999999999996,0)" xlink:href="#br"/></g><path d="M141-36C126-15 110 5 73 4 37 3 15-17 15-53c-1-64 63-63 125-63 3-35-9-54-41-54-24 1-41 7-42 31l-33-3c5-37 33-52 76-52 45 0 72 20 72 64v82c-1 20 7 32 28 27v20c-31 9-61-2-59-35zM48-53c0 20 12 33 32 33 41-3 63-29 60-74-43 2-92-5-92 41" id="bs"/><g id="w"><use transform="matrix(0.04999999999999999,0,0,0.04999999999999999,0,0)" xlink:href="#bi"/><use transform="matrix(0.04999999999999999,0,0,0.04999999999999999,8.999999999999998,0)" xlink:href="#bj"/><use transform="matrix(0.04999999999999999,0,0,0.04999999999999999,13.999999999999996,0)" xlink:href="#bs"/><use transform="matrix(0.04999999999999999,0,0,0.04999999999999999,23.999999999999993,0)" xlink:href="#bj"/><use transform="matrix(0.04999999999999999,0,0,0.04999999999999999,28.999999999999993,0)" xlink:href="#bl"/></g><path d="M185-189c-5-48-123-54-124 2 14 75 158 14 163 119 3 78-121 87-175 55-17-10-28-26-33-46l33-7c5 56 141 63 141-1 0-78-155-14-162-118-5-82 145-84 179-34 5 7 8 16 11 25" id="bt"/><path d="M190 0L58-211 59 0H30v-248h39L202-35l-2-213h31V0h-41" id="bu"/><g id="x"><use transform="matrix(0.06234567901234567,0,0,0.06234567901234567,0,0)" xlink:href="#bt"/><use transform="matrix(0.06234567901234567,0,0,0.06234567901234567,14.96296296296296,0)" xlink:href="#bt"/><use transform="matrix(0.06234567901234567,0,0,0.06234567901234567,29.92592592592592,0)" xlink:href="#bu"/><path d="M-1.12 1.56H47.2V3.2H-1.12z"/></g><g id="y"><use transform="matrix(0.06172839506172839,0,0,0.06172839506172839,0,0)" xlink:href="#bh"/><use transform="matrix(0.06172839506172839,0,0,0.06172839506172839,14.814814814814813,0)" xlink:href="#aD"/><use transform="matrix(0.06172839506172839,0,0,0.06172839506172839,19.691358024691354,0)" xlink:href="#aX"/><use transform="matrix(0.06172839506172839,0,0,0.06172839506172839,24.5679012345679,0)" xlink:href="#as"/><use transform="matrix(0.06172839506172839,0,0,0.06172839506172839,36.913580246913575,0)" xlink:href="#aV"/></g><path d="M30 0v-248h33v221h125V0H30" id="bv"/><path d="M24-231v-30h32v30H24zM24 0v-190h32V0H24" id="bw"/><path d="M96-169c-40 0-48 33-48 73s9 75 48 75c24 0 41-14 43-38l32 2c-6 37-31 61-74 61-59 0-76-41-82-99-10-93 101-131 147-64 4 7 5 14 7 22l-32 3c-4-21-16-35-41-35" id="bx"/><g id="z"><use transform="matrix(0.06234567901234567,0,0,0.06234567901234567,0,0)" xlink:href="#bv"/><use transform="matrix(0.06234567901234567,0,0,0.06234567901234567,12.469135802469133,0)" xlink:href="#bw"/><use transform="matrix(0.06234567901234567,0,0,0.06234567901234567,17.39444444444444,0)" xlink:href="#bx"/><use transform="matrix(0.06234567901234567,0,0,0.06234567901234567,28.61666666666666,0)" xlink:href="#bl"/><use transform="matrix(0.06234567901234567,0,0,0.06234567901234567,41.08580246913579,0)" xlink:href="#bm"/><use transform="matrix(0.06234567901234567,0,0,0.06234567901234567,53.554938271604925,0)" xlink:href="#bi"/><use transform="matrix(0.06234567901234567,0,0,0.06234567901234567,64.77716049382714,0)" xlink:href="#bl"/><use transform="matrix(0.06234567901234567,0,0,0.06234567901234567,77.24629629629626,0)" xlink:href="#bu"/><use transform="matrix(0.06234567901234567,0,0,0.06234567901234567,93.3938271604938,0)" xlink:href="#bn"/><use transform="matrix(0.06234567901234567,0,0,0.06234567901234567,105.86296296296294,0)" xlink:href="#bo"/><use transform="matrix(0.06234567901234567,0,0,0.06234567901234567,124.5043209876543,0)" xlink:href="#bp"/><use transform="matrix(0.06234567901234567,0,0,0.06234567901234567,136.97345679012344,0)" xlink:href="#bl"/><use transform="matrix(0.06234567901234567,0,0,0.06234567901234567,149.44259259259258,0)" xlink:href="#bk"/></g><path fill="#333" d="M115-3C79 11 28 4 28-45v-112H4v-33h27l15-45h31v45h36v33H77v99c-1 23 16 31 38 25v30" id="by"/><g id="A"><use transform="matrix(0.04938271604938272,0,0,0.04938271604938272,0,0)" xlink:href="#aN"/><use transform="matrix(0.04938271604938272,0,0,0.04938271604938272,5.8765432098765435,0)" xlink:href="#by"/><use transform="matrix(0.04938271604938272,0,0,0.04938271604938272,11.753086419753087,0)" xlink:href="#aP"/><use transform="matrix(0.04938271604938272,0,0,0.04938271604938272,16.69135802469136,0)" xlink:href="#aG"/><use transform="matrix(0.04938271604938272,0,0,0.04938271604938272,27.506172839506174,0)" xlink:href="#aQ"/></g><g id="B"><use transform="matrix(0.06172839506172839,0,0,0.06172839506172839,0,0)" xlink:href="#aD"/><use transform="matrix(0.06172839506172839,0,0,0.06172839506172839,4.876543209876543,0)" xlink:href="#aw"/></g><path fill="#333" d="M135-194c53 0 70 44 70 98 0 56-19 98-73 100-31 1-45-17-59-34 3 33 2 69 2 105H25l-1-265h48c2 10 0 23 3 31 11-24 29-35 60-35zM114-30c33 0 39-31 40-66 0-38-9-64-40-64-56 0-55 130 0 130" id="bz"/><path fill="#333" d="M25 0v-261h50V0H25" id="bA"/><g id="C"><use transform="matrix(0.04938271604938272,0,0,0.04938271604938272,0,0)" xlink:href="#bz"/><use transform="matrix(0.04938271604938272,0,0,0.04938271604938272,10.814814814814815,0)" xlink:href="#aE"/><use transform="matrix(0.04938271604938272,0,0,0.04938271604938272,15.753086419753087,0)" xlink:href="#bA"/><use transform="matrix(0.04938271604938272,0,0,0.04938271604938272,20.69135802469136,0)" xlink:href="#aG"/><use transform="matrix(0.04938271604938272,0,0,0.04938271604938272,31.506172839506174,0)" xlink:href="#by"/><use transform="matrix(0.04938271604938272,0,0,0.04938271604938272,37.38271604938272,0)" xlink:href="#aF"/></g><g id="D"><use transform="matrix(0.04938271604938272,0,0,0.04938271604938272,0,0)" xlink:href="#aN"/><use transform="matrix(0.04938271604938272,0,0,0.04938271604938272,5.8765432098765435,0)" xlink:href="#aO"/><use transform="matrix(0.04938271604938272,0,0,0.04938271604938272,15.753086419753087,0)" xlink:href="#aP"/><use transform="matrix(0.04938271604938272,0,0,0.04938271604938272,20.69135802469136,0)" xlink:href="#aR"/><use transform="matrix(0.04938271604938272,0,0,0.04938271604938272,30.567901234567906,0)" xlink:href="#aQ"/></g><g id="E"><use transform="matrix(0.04938271604938272,0,0,0.04938271604938272,0,0)" xlink:href="#aE"/><use transform="matrix(0.04938271604938272,0,0,0.04938271604938272,4.938271604938272,0)" xlink:href="#aI"/></g><g id="F"><use transform="matrix(0.04938271604938272,0,0,0.04938271604938272,0,0)" xlink:href="#aN"/><use transform="matrix(0.04938271604938272,0,0,0.04938271604938272,5.8765432098765435,0)" xlink:href="#aO"/><use transform="matrix(0.04938271604938272,0,0,0.04938271604938272,15.753086419753087,0)" xlink:href="#aP"/><use transform="matrix(0.04938271604938272,0,0,0.04938271604938272,20.69135802469136,0)" xlink:href="#aR"/><use transform="matrix(0.04938271604938272,0,0,0.04938271604938272,30.567901234567906,0)" xlink:href="#aQ"/></g><g id="G"><use transform="matrix(0.06172839506172839,0,0,0.06172839506172839,0,0)" xlink:href="#bh"/><use transform="matrix(0.06172839506172839,0,0,0.06172839506172839,14.814814814814813,0)" xlink:href="#av"/><use transform="matrix(0.06172839506172839,0,0,0.06172839506172839,27.160493827160494,0)" xlink:href="#aB"/><use transform="matrix(0.06172839506172839,0,0,0.06172839506172839,38.27160493827161,0)" xlink:href="#aB"/><use transform="matrix(0.06172839506172839,0,0,0.06172839506172839,49.38271604938272,0)" xlink:href="#az"/><use transform="matrix(0.06172839506172839,0,0,0.06172839506172839,61.7283950617284,0)" xlink:href="#aw"/><use transform="matrix(0.06172839506172839,0,0,0.06172839506172839,74.07407407407408,0)" xlink:href="#bd"/><use transform="matrix(0.06172839506172839,0,0,0.06172839506172839,86.41975308641976,0)" xlink:href="#az"/><use transform="matrix(0.06172839506172839,0,0,0.06172839506172839,98.76543209876544,0)" xlink:href="#aA"/></g><path d="M63-220v92h138v28H63V0H30v-248h175v28H63" id="bB"/><path d="M145-31C134-9 116 4 85 4 32 4 16-35 15-94c0-59 17-99 70-100 32-1 48 14 60 33 0-11-1-24 2-32h30l-1 268h-32zM93-21c41 0 51-33 51-76s-8-73-50-73c-40 0-46 35-46 75s5 74 45 74" id="bC"/><path d="M127-220V0H93v-220H8v-28h204v28h-85" id="bD"/><path d="M108 0H70L1-190h34L89-25l56-165h34" id="bE"/><path d="M24 0v-261h32V0H24" id="bF"/><g id="H"><use transform="matrix(0.06234567901234567,0,0,0.06234567901234567,0,0)" xlink:href="#bB"/><use transform="matrix(0.06234567901234567,0,0,0.06234567901234567,13.653703703703702,0)" xlink:href="#bk"/><use transform="matrix(0.06234567901234567,0,0,0.06234567901234567,21.072839506172837,0)" xlink:href="#bl"/><use transform="matrix(0.06234567901234567,0,0,0.06234567901234567,33.541975308641966,0)" xlink:href="#bC"/><use transform="matrix(0.06234567901234567,0,0,0.06234567901234567,46.0111111111111,0)" xlink:href="#bn"/><use transform="matrix(0.06234567901234567,0,0,0.06234567901234567,58.48024691358023,0)" xlink:href="#bl"/><use transform="matrix(0.06234567901234567,0,0,0.06234567901234567,70.94938271604937,0)" xlink:href="#bm"/><use transform="matrix(0.06234567901234567,0,0,0.06234567901234567,83.41851851851851,0)" xlink:href="#bj"/><use transform="matrix(0.06234567901234567,0,0,0.06234567901234567,89.65308641975308,0)" xlink:href="#bD"/><use transform="matrix(0.06234567901234567,0,0,0.06234567901234567,102.49629629629628,0)" xlink:href="#bk"/><use transform="matrix(0.06234567901234567,0,0,0.06234567901234567,109.91543209876541,0)" xlink:href="#bs"/><use transform="matrix(0.06234567901234567,0,0,0.06234567901234567,122.38456790123453,0)" xlink:href="#bE"/><use transform="matrix(0.06234567901234567,0,0,0.06234567901234567,133.60679012345676,0)" xlink:href="#bl"/><use transform="matrix(0.06234567901234567,0,0,0.06234567901234567,146.0759259259259,0)" xlink:href="#bF"/><use transform="matrix(0.06234567901234567,0,0,0.06234567901234567,151.0012345679012,0)" xlink:href="#bF"/><use transform="matrix(0.06234567901234567,0,0,0.06234567901234567,155.9265432098765,0)" xlink:href="#bl"/><use transform="matrix(0.06234567901234567,0,0,0.06234567901234567,168.39567901234565,0)" xlink:href="#bk"/></g><path d="M87 75C49 33 22-17 22-94c0-76 28-126 65-167h31c-38 41-64 92-64 168S80 34 118 75H87" id="bG"/><path d="M101-251c68 0 85 55 85 127S166 4 100 4C33 4 14-52 14-124c0-73 17-127 87-127zm-1 229c47 0 54-49 54-102s-4-102-53-102c-51 0-55 48-55 102 0 53 5 102 54 102" id="bH"/><path d="M68-38c1 34 0 65-14 84H32c9-13 17-26 17-46H33v-38h35" id="bI"/><path d="M27 0v-27h64v-190l-56 39v-29l58-41h29v221h61V0H27" id="bJ"/><path d="M33-261c38 41 65 92 65 168S71 34 33 75H2C39 34 66-17 66-93S39-220 2-261h31" id="bK"/><g id="I"><use transform="matrix(0.06234567901234567,0,0,0.06234567901234567,0,0)" xlink:href="#bG"/><use transform="matrix(0.06234567901234567,0,0,0.06234567901234567,7.4191358024691345,0)" xlink:href="#bH"/><use transform="matrix(0.06234567901234567,0,0,0.06234567901234567,19.888271604938268,0)" xlink:href="#bI"/><use transform="matrix(0.06234567901234567,0,0,0.06234567901234567,26.122839506172834,0)" xlink:href="#bJ"/><use transform="matrix(0.06234567901234567,0,0,0.06234567901234567,38.59197530864196,0)" xlink:href="#bK"/></g><path fill="#333" d="M63-220v92h138v28H63V0H30v-248h175v28H63" id="bL"/><g id="J"><use transform="matrix(0.06172839506172839,0,0,0.06172839506172839,0,0)" xlink:href="#bL"/><use transform="matrix(0.06172839506172839,0,0,0.06172839506172839,13.518518518518517,0)" xlink:href="#aX"/><use transform="matrix(0.06172839506172839,0,0,0.06172839506172839,18.39506172839506,0)" xlink:href="#aD"/><use transform="matrix(0.06172839506172839,0,0,0.06172839506172839,23.2716049382716,0)" xlink:href="#bd"/><use transform="matrix(0.06172839506172839,0,0,0.06172839506172839,35.61728395061728,0)" xlink:href="#aC"/><use transform="matrix(0.06172839506172839,0,0,0.06172839506172839,47.962962962962955,0)" xlink:href="#aV"/></g><path d="M85-194c31 0 48 13 60 33l-1-100h32l1 261h-30c-2-10 0-23-3-31C134-8 116 4 85 4 32 4 16-35 15-94c0-66 23-100 70-100zm9 24c-40 0-46 34-46 75 0 40 6 74 45 74 42 0 51-32 51-76 0-42-9-74-50-73" id="bM"/><g id="K"><use transform="matrix(0.06234567901234567,0,0,0.06234567901234567,0,0)" xlink:href="#bw"/><use transform="matrix(0.06234567901234567,0,0,0.06234567901234567,4.925308641975308,0)" xlink:href="#bM"/><path d="M-1.12 1.56h19.64V3.2H-1.12z"/></g><path fill="#333" d="M33 0v-248h34V0H33" id="bN"/><g id="L"><use transform="matrix(0.06172839506172839,0,0,0.06172839506172839,0,0)" xlink:href="#au"/><use transform="matrix(0.06172839506172839,0,0,0.06172839506172839,12.345679012345679,0)" xlink:href="#aX"/><use transform="matrix(0.06172839506172839,0,0,0.06172839506172839,17.22222222222222,0)" xlink:href="#av"/><use transform="matrix(0.06172839506172839,0,0,0.06172839506172839,29.5679012345679,0)" xlink:href="#aw"/><use transform="matrix(0.06172839506172839,0,0,0.06172839506172839,41.913580246913575,0)" xlink:href="#az"/><use transform="matrix(0.06172839506172839,0,0,0.06172839506172839,54.25925925925925,0)" xlink:href="#bN"/><use transform="matrix(0.06172839506172839,0,0,0.06172839506172839,60.432098765432094,0)" xlink:href="#aW"/></g><g id="M"><use transform="matrix(0.06172839506172839,0,0,0.06172839506172839,0,0)" xlink:href="#aB"/><use transform="matrix(0.06172839506172839,0,0,0.06172839506172839,11.11111111111111,0)" xlink:href="#aV"/><use transform="matrix(0.06172839506172839,0,0,0.06172839506172839,17.28395061728395,0)" xlink:href="#av"/><use transform="matrix(0.06172839506172839,0,0,0.06172839506172839,29.629629629629626,0)" xlink:href="#aA"/><use transform="matrix(0.06172839506172839,0,0,0.06172839506172839,36.9753086419753,0)" xlink:href="#aV"/><use transform="matrix(0.06172839506172839,0,0,0.06172839506172839,43.148148148148145,0)" xlink:href="#aS"/><use transform="matrix(0.06172839506172839,0,0,0.06172839506172839,57.96296296296296,0)" xlink:href="#aD"/><use transform="matrix(0.06172839506172839,0,0,0.06172839506172839,62.839506172839506,0)" xlink:href="#aA"/><use transform="matrix(0.06172839506172839,0,0,0.06172839506172839,70.18518518518519,0)" xlink:href="#au"/><use transform="matrix(0.06172839506172839,0,0,0.06172839506172839,82.53086419753087,0)" xlink:href="#as"/><use transform="matrix(0.06172839506172839,0,0,0.06172839506172839,94.87654320987656,0)" xlink:href="#aA"/><use transform="matrix(0.06172839506172839,0,0,0.06172839506172839,102.22222222222224,0)" xlink:href="#aV"/></g><path d="M205 0l-28-72H64L36 0H1l101-248h38L239 0h-34zm-38-99l-47-123c-12 45-31 82-46 123h93" id="bO"/><path d="M115-194c55 1 70 41 70 98S169 2 115 4C84 4 66-9 55-30l1 105H24l-1-265h31l2 30c10-21 28-34 59-34zm-8 174c40 0 45-34 45-75s-6-73-45-74c-42 0-51 32-51 76 0 43 10 73 51 73" id="bP"/><path d="M100-194c62-1 85 37 85 99 1 63-27 99-86 99S16-35 15-95c0-66 28-99 85-99zM99-20c44 1 53-31 53-75 0-43-8-75-51-75s-53 32-53 75 10 74 51 75" id="bQ"/><g id="N"><use transform="matrix(0.06234567901234567,0,0,0.06234567901234567,0,0)" xlink:href="#bl"/><use transform="matrix(0.06234567901234567,0,0,0.06234567901234567,12.469135802469133,0)" xlink:href="#bm"/><use transform="matrix(0.06234567901234567,0,0,0.06234567901234567,24.938271604938265,0)" xlink:href="#bM"/><use transform="matrix(0.06234567901234567,0,0,0.06234567901234567,37.4074074074074,0)" xlink:href="#bO"/><use transform="matrix(0.06234567901234567,0,0,0.06234567901234567,52.37037037037036,0)" xlink:href="#bw"/><use transform="matrix(0.06234567901234567,0,0,0.06234567901234567,57.295679012345666,0)" xlink:href="#bk"/><use transform="matrix(0.06234567901234567,0,0,0.06234567901234567,64.7148148148148,0)" xlink:href="#bP"/><use transform="matrix(0.06234567901234567,0,0,0.06234567901234567,77.18395061728393,0)" xlink:href="#bQ"/><use transform="matrix(0.06234567901234567,0,0,0.06234567901234567,89.65308641975307,0)" xlink:href="#bk"/><use transform="matrix(0.06234567901234567,0,0,0.06234567901234567,97.0722222222222,0)" xlink:href="#bj"/></g><g id="O"><use transform="matrix(0.06234567901234567,0,0,0.06234567901234567,0,0)" xlink:href="#bs"/><use transform="matrix(0.06234567901234567,0,0,0.06234567901234567,12.469135802469133,0)" xlink:href="#bk"/><use transform="matrix(0.06234567901234567,0,0,0.06234567901234567,19.888271604938268,0)" xlink:href="#bk"/><use transform="matrix(0.06234567901234567,0,0,0.06234567901234567,27.307407407407403,0)" xlink:href="#bw"/><use transform="matrix(0.06234567901234567,0,0,0.06234567901234567,32.23271604938271,0)" xlink:href="#bE"/><use transform="matrix(0.06234567901234567,0,0,0.06234567901234567,43.45493827160493,0)" xlink:href="#bs"/><use transform="matrix(0.06234567901234567,0,0,0.06234567901234567,55.92407407407406,0)" xlink:href="#bF"/><use transform="matrix(0.06234567901234567,0,0,0.06234567901234567,60.84938271604937,0)" xlink:href="#bD"/><use transform="matrix(0.06234567901234567,0,0,0.06234567901234567,73.69259259259258,0)" xlink:href="#bw"/><use transform="matrix(0.06234567901234567,0,0,0.06234567901234567,78.61790123456788,0)" xlink:href="#bo"/><use transform="matrix(0.06234567901234567,0,0,0.06234567901234567,97.25925925925924,0)" xlink:href="#bl"/></g><g id="P"><use transform="matrix(0.06234567901234567,0,0,0.06234567901234567,0,0)" xlink:href="#bM"/><use transform="matrix(0.06234567901234567,0,0,0.06234567901234567,12.469135802469133,0)" xlink:href="#bl"/><use transform="matrix(0.06234567901234567,0,0,0.06234567901234567,24.938271604938265,0)" xlink:href="#bP"/><use transform="matrix(0.06234567901234567,0,0,0.06234567901234567,37.4074074074074,0)" xlink:href="#bs"/><use transform="matrix(0.06234567901234567,0,0,0.06234567901234567,49.87654320987653,0)" xlink:href="#bk"/><use transform="matrix(0.06234567901234567,0,0,0.06234567901234567,57.295679012345666,0)" xlink:href="#bj"/><use transform="matrix(0.06234567901234567,0,0,0.06234567901234567,63.53024691358023,0)" xlink:href="#bn"/><use transform="matrix(0.06234567901234567,0,0,0.06234567901234567,75.99938271604935,0)" xlink:href="#bk"/><use transform="matrix(0.06234567901234567,0,0,0.06234567901234567,83.41851851851848,0)" xlink:href="#bl"/><use transform="matrix(0.06234567901234567,0,0,0.06234567901234567,95.88765432098762,0)" xlink:href="#bD"/><use transform="matrix(0.06234567901234567,0,0,0.06234567901234567,108.73086419753082,0)" xlink:href="#bw"/><use transform="matrix(0.06234567901234567,0,0,0.06234567901234567,113.65617283950613,0)" xlink:href="#bo"/><use transform="matrix(0.06234567901234567,0,0,0.06234567901234567,132.29753086419748,0)" xlink:href="#bl"/></g><g id="Q"><use transform="matrix(0.06234567901234567,0,0,0.06234567901234567,0,0)" xlink:href="#bM"/><use transform="matrix(0.06234567901234567,0,0,0.06234567901234567,12.469135802469133,0)" xlink:href="#bw"/><use transform="matrix(0.06234567901234567,0,0,0.06234567901234567,17.39444444444444,0)" xlink:href="#bi"/><use transform="matrix(0.06234567901234567,0,0,0.06234567901234567,28.61666666666666,0)" xlink:href="#bj"/><use transform="matrix(0.06234567901234567,0,0,0.06234567901234567,34.85123456790123,0)" xlink:href="#bs"/><use transform="matrix(0.06234567901234567,0,0,0.06234567901234567,47.32037037037036,0)" xlink:href="#bm"/><use transform="matrix(0.06234567901234567,0,0,0.06234567901234567,59.789506172839495,0)" xlink:href="#bx"/><use transform="matrix(0.06234567901234567,0,0,0.06234567901234567,71.01172839506171,0)" xlink:href="#bl"/></g><path fill="#333" d="M220-157c-53 9-28 100-34 157h-49v-107c1-27-5-49-29-50C55-147 81-57 75 0H25l-1-190h47c2 12-1 28 3 38 10-53 101-56 108 0 13-22 24-43 59-42 82 1 51 116 57 194h-49v-107c-1-25-5-48-29-50" id="bR"/><path fill="#333" d="M133-34C117-15 103 5 69 4 32 3 11-16 11-54c-1-60 55-63 116-61 1-26-3-47-28-47-18 1-26 9-28 27l-52-2c7-38 36-58 82-57s74 22 75 68l1 82c-1 14 12 18 25 15v27c-30 8-71 5-69-32zm-48 3c29 0 43-24 42-57-32 0-66-3-65 30 0 17 8 27 23 27" id="bS"/><g id="R"><use transform="matrix(0.04938271604938272,0,0,0.04938271604938272,0,0)" xlink:href="#bR"/><use transform="matrix(0.04938271604938272,0,0,0.04938271604938272,15.80246913580247,0)" xlink:href="#bS"/><use transform="matrix(0.04938271604938272,0,0,0.04938271604938272,25.679012345679016,0)" xlink:href="#aK"/><use transform="matrix(0.04938271604938272,0,0,0.04938271604938272,36.49382716049383,0)" xlink:href="#aJ"/></g><g id="S"><use transform="matrix(0.04938271604938272,0,0,0.04938271604938272,0,0)" xlink:href="#aN"/><use transform="matrix(0.04938271604938272,0,0,0.04938271604938272,5.8765432098765435,0)" xlink:href="#aR"/><use transform="matrix(0.04938271604938272,0,0,0.04938271604938272,15.753086419753087,0)" xlink:href="#aP"/><use transform="matrix(0.04938271604938272,0,0,0.04938271604938272,20.69135802469136,0)" xlink:href="#aR"/><use transform="matrix(0.04938271604938272,0,0,0.04938271604938272,30.567901234567906,0)" xlink:href="#aQ"/></g><g id="T"><use transform="matrix(0.06172839506172839,0,0,0.06172839506172839,0,0)" xlink:href="#au"/><use transform="matrix(0.06172839506172839,0,0,0.06172839506172839,12.345679012345679,0)" xlink:href="#aD"/><use transform="matrix(0.06172839506172839,0,0,0.06172839506172839,17.22222222222222,0)" xlink:href="#aX"/><use transform="matrix(0.06172839506172839,0,0,0.06172839506172839,22.098765432098766,0)" xlink:href="#as"/><use transform="matrix(0.06172839506172839,0,0,0.06172839506172839,34.44444444444444,0)" xlink:href="#aV"/><use transform="matrix(0.06172839506172839,0,0,0.06172839506172839,40.617283950617285,0)" xlink:href="#aD"/><use transform="matrix(0.06172839506172839,0,0,0.06172839506172839,45.49382716049383,0)" xlink:href="#aw"/><use transform="matrix(0.06172839506172839,0,0,0.06172839506172839,57.839506172839506,0)" xlink:href="#bd"/></g><g id="U"><use transform="matrix(0.04938271604938272,0,0,0.04938271604938272,0,0)" xlink:href="#bz"/><use transform="matrix(0.04938271604938272,0,0,0.04938271604938272,10.814814814814815,0)" xlink:href="#aE"/><use transform="matrix(0.04938271604938272,0,0,0.04938271604938272,15.753086419753087,0)" xlink:href="#bA"/><use transform="matrix(0.04938271604938272,0,0,0.04938271604938272,20.69135802469136,0)" xlink:href="#aG"/><use transform="matrix(0.04938271604938272,0,0,0.04938271604938272,31.506172839506174,0)" xlink:href="#by"/><use transform="matrix(0.04938271604938272,0,0,0.04938271604938272,37.38271604938272,0)" xlink:href="#aJ"/><use transform="matrix(0.04938271604938272,0,0,0.04938271604938272,47.25925925925927,0)" xlink:href="#aK"/></g><path fill="#333" d="M182-182c0 78-84 86-111 141h115V0H12c-6-101 99-100 120-180 1-22-12-31-33-32-23 0-32 14-35 34l-49-3c5-45 32-70 84-70 51 0 83 22 83 69" id="bT"/><g id="V"><use transform="matrix(0.04938271604938272,0,0,0.04938271604938272,0,0)" xlink:href="#aN"/><use transform="matrix(0.04938271604938272,0,0,0.04938271604938272,5.8765432098765435,0)" xlink:href="#aR"/><use transform="matrix(0.04938271604938272,0,0,0.04938271604938272,15.753086419753087,0)" xlink:href="#aP"/><use transform="matrix(0.04938271604938272,0,0,0.04938271604938272,20.69135802469136,0)" xlink:href="#bT"/><use transform="matrix(0.04938271604938272,0,0,0.04938271604938272,30.567901234567906,0)" xlink:href="#aQ"/></g><g id="W"><use transform="matrix(0.06172839506172839,0,0,0.06172839506172839,0,0)" xlink:href="#aS"/><use transform="matrix(0.06172839506172839,0,0,0.06172839506172839,14.814814814814813,0)" xlink:href="#aD"/><use transform="matrix(0.06172839506172839,0,0,0.06172839506172839,19.691358024691354,0)" xlink:href="#aA"/><use transform="matrix(0.06172839506172839,0,0,0.06172839506172839,27.03703703703703,0)" xlink:href="#au"/><use transform="matrix(0.06172839506172839,0,0,0.06172839506172839,39.38271604938271,0)" xlink:href="#as"/><use transform="matrix(0.06172839506172839,0,0,0.06172839506172839,51.728395061728385,0)" xlink:href="#aA"/><use transform="matrix(0.06172839506172839,0,0,0.06172839506172839,59.07407407407406,0)" xlink:href="#aV"/></g><g id="X"><use transform="matrix(0.06172839506172839,0,0,0.06172839506172839,0,0)" xlink:href="#aS"/><use transform="matrix(0.06172839506172839,0,0,0.06172839506172839,14.814814814814813,0)" xlink:href="#aD"/><use transform="matrix(0.06172839506172839,0,0,0.06172839506172839,19.691358024691354,0)" xlink:href="#aA"/><use transform="matrix(0.06172839506172839,0,0,0.06172839506172839,27.03703703703703,0)" xlink:href="#au"/><use transform="matrix(0.06172839506172839,0,0,0.06172839506172839,39.38271604938271,0)" xlink:href="#as"/><use transform="matrix(0.06172839506172839,0,0,0.06172839506172839,51.728395061728385,0)" xlink:href="#aA"/><use transform="matrix(0.06172839506172839,0,0,0.06172839506172839,59.07407407407406,0)" xlink:href="#aV"/><use transform="matrix(0.06172839506172839,0,0,0.06172839506172839,65.2469135802469,0)" xlink:href="#ar"/><use transform="matrix(0.06172839506172839,0,0,0.06172839506172839,81.23456790123456,0)" xlink:href="#as"/><use transform="matrix(0.06172839506172839,0,0,0.06172839506172839,93.58024691358024,0)" xlink:href="#aW"/><use transform="matrix(0.06172839506172839,0,0,0.06172839506172839,105.92592592592592,0)" xlink:href="#az"/><path fill="#333" d="M-1.1 1.54h120.48v1.63H-1.12z"/></g><g id="Y"><use transform="matrix(0.06172839506172839,0,0,0.06172839506172839,0,0)" xlink:href="#ar"/><use transform="matrix(0.06172839506172839,0,0,0.06172839506172839,15.987654320987653,0)" xlink:href="#aD"/><use transform="matrix(0.06172839506172839,0,0,0.06172839506172839,20.864197530864196,0)" xlink:href="#aV"/><use transform="matrix(0.06172839506172839,0,0,0.06172839506172839,27.037037037037035,0)" xlink:href="#ax"/></g><g id="Z"><use transform="matrix(0.05,0,0,0.05,0,0)" xlink:href="#bt"/><use transform="matrix(0.05,0,0,0.05,12,0)" xlink:href="#bj"/><use transform="matrix(0.05,0,0,0.05,17,0)" xlink:href="#bs"/><use transform="matrix(0.05,0,0,0.05,27,0)" xlink:href="#bj"/><use transform="matrix(0.05,0,0,0.05,32,0)" xlink:href="#bl"/></g><g id="aa"><use transform="matrix(0.04938271604938272,0,0,0.04938271604938272,0,0)" xlink:href="#aN"/><use transform="matrix(0.04938271604938272,0,0,0.04938271604938272,5.8765432098765435,0)" xlink:href="#by"/><use transform="matrix(0.04938271604938272,0,0,0.04938271604938272,11.753086419753087,0)" xlink:href="#aP"/><use transform="matrix(0.04938271604938272,0,0,0.04938271604938272,16.69135802469136,0)" xlink:href="#aJ"/><use transform="matrix(0.04938271604938272,0,0,0.04938271604938272,26.567901234567902,0)" xlink:href="#aQ"/></g><path fill="#333" d="M143 0L79-87 56-68V0H24v-261h32v163l83-92h37l-77 82L181 0h-38" id="bU"/><g id="ab"><use transform="matrix(0.06172839506172839,0,0,0.06172839506172839,0,0)" xlink:href="#ba"/><use transform="matrix(0.06172839506172839,0,0,0.06172839506172839,12.345679012345679,0)" xlink:href="#as"/><use transform="matrix(0.06172839506172839,0,0,0.06172839506172839,24.691358024691358,0)" xlink:href="#as"/><use transform="matrix(0.06172839506172839,0,0,0.06172839506172839,37.03703703703704,0)" xlink:href="#bU"/><use transform="matrix(0.06172839506172839,0,0,0.06172839506172839,48.14814814814815,0)" xlink:href="#aD"/><use transform="matrix(0.06172839506172839,0,0,0.06172839506172839,53.0246913580247,0)" xlink:href="#aw"/><use transform="matrix(0.06172839506172839,0,0,0.06172839506172839,65.37037037037038,0)" xlink:href="#bd"/></g><path fill="#333" d="M147 0L96-86 75-71V0H25v-261h50v150l67-79h53l-66 74L201 0h-54" id="bV"/><g id="ac"><use transform="matrix(0.04938271604938272,0,0,0.04938271604938272,0,0)" xlink:href="#aL"/><use transform="matrix(0.04938271604938272,0,0,0.04938271604938272,10.814814814814815,0)" xlink:href="#aG"/><use transform="matrix(0.04938271604938272,0,0,0.04938271604938272,21.62962962962963,0)" xlink:href="#aG"/><use transform="matrix(0.04938271604938272,0,0,0.04938271604938272,32.44444444444444,0)" xlink:href="#bV"/><use transform="matrix(0.04938271604938272,0,0,0.04938271604938272,42.32098765432099,0)" xlink:href="#aF"/></g><g id="ad"><use transform="matrix(0.04938271604938272,0,0,0.04938271604938272,0,0)" xlink:href="#aN"/><use transform="matrix(0.04938271604938272,0,0,0.04938271604938272,5.8765432098765435,0)" xlink:href="#aR"/><use transform="matrix(0.04938271604938272,0,0,0.04938271604938272,15.753086419753087,0)" xlink:href="#aP"/><use transform="matrix(0.04938271604938272,0,0,0.04938271604938272,20.69135802469136,0)" xlink:href="#aR"/><use transform="matrix(0.04938271604938272,0,0,0.04938271604938272,30.567901234567906,0)" xlink:href="#aQ"/></g><g id="ae"><use transform="matrix(0.04938271604938272,0,0,0.04938271604938272,0,0)" xlink:href="#aL"/><use transform="matrix(0.04938271604938272,0,0,0.04938271604938272,10.814814814814815,0)" xlink:href="#aG"/><use transform="matrix(0.04938271604938272,0,0,0.04938271604938272,21.62962962962963,0)" xlink:href="#aG"/><use transform="matrix(0.04938271604938272,0,0,0.04938271604938272,32.44444444444444,0)" xlink:href="#bV"/><use transform="matrix(0.04938271604938272,0,0,0.04938271604938272,42.32098765432099,0)" xlink:href="#aJ"/><use transform="matrix(0.04938271604938272,0,0,0.04938271604938272,52.19753086419754,0)" xlink:href="#aK"/></g><g id="af"><use transform="matrix(0.06172839506172839,0,0,0.06172839506172839,0,0)" xlink:href="#au"/><use transform="matrix(0.06172839506172839,0,0,0.06172839506172839,12.345679012345679,0)" xlink:href="#aA"/><use transform="matrix(0.06172839506172839,0,0,0.06172839506172839,19.691358024691358,0)" xlink:href="#aD"/><use transform="matrix(0.06172839506172839,0,0,0.06172839506172839,24.5679012345679,0)" xlink:href="#aT"/><use transform="matrix(0.06172839506172839,0,0,0.06172839506172839,35.67901234567901,0)" xlink:href="#az"/></g><g id="ag"><use transform="matrix(0.06172839506172839,0,0,0.06172839506172839,0,0)" xlink:href="#aB"/><use transform="matrix(0.06172839506172839,0,0,0.06172839506172839,11.11111111111111,0)" xlink:href="#az"/><use transform="matrix(0.06172839506172839,0,0,0.06172839506172839,23.45679012345679,0)" xlink:href="#av"/><use transform="matrix(0.06172839506172839,0,0,0.06172839506172839,35.80246913580247,0)" xlink:href="#aV"/></g><g id="ah"><use transform="matrix(0.06172839506172839,0,0,0.06172839506172839,0,0)" xlink:href="#aA"/><use transform="matrix(0.06172839506172839,0,0,0.06172839506172839,7.345679012345679,0)" xlink:href="#as"/><use transform="matrix(0.06172839506172839,0,0,0.06172839506172839,19.691358024691358,0)" xlink:href="#ay"/></g><g id="ai"><use transform="matrix(0.06172839506172839,0,0,0.06172839506172839,0,0)" xlink:href="#aX"/><use transform="matrix(0.06172839506172839,0,0,0.06172839506172839,4.876543209876543,0)" xlink:href="#az"/><use transform="matrix(0.06172839506172839,0,0,0.06172839506172839,17.22222222222222,0)" xlink:href="#aV"/><use transform="matrix(0.06172839506172839,0,0,0.06172839506172839,23.39506172839506,0)" xlink:href="#aV"/><use transform="matrix(0.06172839506172839,0,0,0.06172839506172839,29.5679012345679,0)" xlink:href="#az"/><use transform="matrix(0.06172839506172839,0,0,0.06172839506172839,41.913580246913575,0)" xlink:href="#aA"/></g><g id="aj"><use transform="matrix(0.06172839506172839,0,0,0.06172839506172839,0,0)" xlink:href="#aU"/><use transform="matrix(0.06172839506172839,0,0,0.06172839506172839,6.172839506172839,0)" xlink:href="#aA"/><use transform="matrix(0.06172839506172839,0,0,0.06172839506172839,13.518518518518519,0)" xlink:href="#as"/><use transform="matrix(0.06172839506172839,0,0,0.06172839506172839,25.864197530864196,0)" xlink:href="#at"/></g><g id="ak"><use transform="matrix(0.04938271604938272,0,0,0.04938271604938272,0,0)" xlink:href="#aJ"/><use transform="matrix(0.04938271604938272,0,0,0.04938271604938272,9.876543209876544,0)" xlink:href="#aI"/><use transform="matrix(0.04938271604938272,0,0,0.04938271604938272,20.69135802469136,0)" xlink:href="#aK"/><use transform="matrix(0.04938271604938272,0,0,0.04938271604938272,31.506172839506174,0)" xlink:href="#aF"/></g><g id="al"><use transform="matrix(0.04938271604938272,0,0,0.04938271604938272,0,0)" xlink:href="#bS"/><use transform="matrix(0.04938271604938272,0,0,0.04938271604938272,9.876543209876544,0)" xlink:href="#by"/></g><g id="am"><use transform="matrix(0.04938271604938272,0,0,0.04938271604938272,0,0)" xlink:href="#aJ"/><use transform="matrix(0.04938271604938272,0,0,0.04938271604938272,9.876543209876544,0)" xlink:href="#aI"/><use transform="matrix(0.04938271604938272,0,0,0.04938271604938272,20.69135802469136,0)" xlink:href="#aK"/></g><path fill="#333" d="M121-226c-27-7-43 5-38 36h38v33H83V0H34v-157H6v-33h28c-9-59 32-81 87-68v32" id="bW"/><g id="an"><use transform="matrix(0.04938271604938272,0,0,0.04938271604938272,0,0)" xlink:href="#aG"/><use transform="matrix(0.04938271604938272,0,0,0.04938271604938272,10.814814814814815,0)" xlink:href="#bW"/></g><g id="ao"><use transform="matrix(0.06172839506172839,0,0,0.06172839506172839,0,0)" xlink:href="#aV"/><use transform="matrix(0.06172839506172839,0,0,0.06172839506172839,6.172839506172839,0)" xlink:href="#as"/></g><path fill="#333" d="M135-150c-39-12-60 13-60 57V0H25l-1-190h47c2 13-1 29 3 40 6-28 27-53 61-41v41" id="bX"/><g id="ap"><use transform="matrix(0.04938271604938272,0,0,0.04938271604938272,0,0)" xlink:href="#aF"/><use transform="matrix(0.04938271604938272,0,0,0.04938271604938272,9.876543209876544,0)" xlink:href="#by"/><use transform="matrix(0.04938271604938272,0,0,0.04938271604938272,15.753086419753087,0)" xlink:href="#bS"/><use transform="matrix(0.04938271604938272,0,0,0.04938271604938272,25.629629629629633,0)" xlink:href="#bX"/><use transform="matrix(0.04938271604938272,0,0,0.04938271604938272,32.543209876543216,0)" xlink:href="#by"/><use transform="matrix(0.04938271604938272,0,0,0.04938271604938272,38.41975308641976,0)" xlink:href="#aF"/></g><g id="aq"><use transform="matrix(0.04938271604938272,0,0,0.04938271604938272,0,0)" xlink:href="#aF"/><use transform="matrix(0.04938271604938272,0,0,0.04938271604938272,9.876543209876544,0)" xlink:href="#by"/><use transform="matrix(0.04938271604938272,0,0,0.04938271604938272,15.753086419753087,0)" xlink:href="#bS"/><use transform="matrix(0.04938271604938272,0,0,0.04938271604938272,25.629629629629633,0)" xlink:href="#bX"/><use transform="matrix(0.04938271604938272,0,0,0.04938271604938272,32.543209876543216,0)" xlink:href="#by"/></g></defs></g></svg>