<?xml version="1.0" encoding="UTF-8" standalone="no"?>
<!DOCTYPE svg PUBLIC "-//W3C//DTD SVG 1.1//EN" "http://www.w3.org/Graphics/SVG/1.1/DTD/svg11.dtd">
<svg xmlns="http://www.w3.org/2000/svg" xmlns:xlink="http://www.w3.org/1999/xlink" version="1.1" width="427.308pt" height="602.64pt" viewBox="0 0 427.308 602.64">
<g enable-background="new">
<path transform="matrix(1,0,0,-1,258.781,84.346988)" stroke-width=".3985" stroke-linecap="butt" stroke-miterlimit="10" stroke-linejoin="miter" fill="none" stroke="#000000" d="M -35.4335 -55.80185 L 35.43353 -55.80185 L 35.43353 55.80185 L -35.4335 55.80185 Z M 35.43352 41.84363 L -35.4335 41.84363 "/>
<text xml:space="preserve" transform="matrix(1 0 -0 1 0 602.64)" font-size="9.9626" font-family="CMR10"><tspan y="-563.656" x="230.435 237.90695 241.78241 244.55202 247.32163 250.09123 254.0165 258.9978 262.87327 267.29667 272.83589">Utilisateur</tspan></text>
<text xml:space="preserve" transform="matrix(1 0 -0 1 0 602.64)" font-size="9.9626" font-family="CMR10"><tspan y="-549.698" x="230.435 233.2046">id</tspan></text>
<path transform="matrix(1,0,0,-1,230.435,54.337038)" stroke-width=".398" stroke-linecap="butt" stroke-miterlimit="10" stroke-linejoin="miter" fill="none" stroke="#000000" d="M 0 0 L 8.302 0 "/>
<text xml:space="preserve" transform="matrix(1 0 -0 1 0 602.64)" font-size="9.9626" font-family="CMR10"><tspan y="-537.743" x="230.435 235.9742 240.95549">nom</tspan><tspan y="-525.787" x="230.435 235.9742 239.60059 239.87953 244.30294 249.84214 254.82343">pr&#x00b4;enom</tspan><tspan y="-513.832" x="230.435 235.41629 240.95549 244.86083 249.28423 253.20949 257.13478">adresse</tspan><tspan y="-501.87699" x="239.425 243.33034 248.86954">rue</tspan><tspan y="-489.922" x="239.425 244.68526 250.22446 258.24436 258.5233 262.9467 266.85203">num&#x00b4;ero</tspan><tspan y="-477.967" x="239.425 246.618">CP</tspan><tspan y="-466.01203" x="239.425 244.68526 247.45487 250.22447 252.99408">ville</tspan></text>
<path transform="matrix(1,0,0,-1,258.781,84.346988)" stroke-width=".3985" stroke-linecap="butt" stroke-miterlimit="10" stroke-linejoin="miter" fill="none" stroke="#000000" d="M 64.17883 -116.22731 L 135.04587 -116.22731 L 135.04587 -84.547168 L 64.17883 -84.547168 Z M 135.04589 -100.33188 L 64.17883 -100.33188 "/>
<text xml:space="preserve" transform="matrix(1 0 -0 1 .000030517579 602.64)" font-size="9.9626" font-family="CMR10"><tspan y="-423.419" x="330.046 336.69105 341.39338 346.37467 351.35597 356.33726 360.76066 366.29988">Voyageur</tspan></text>
<text xml:space="preserve" transform="matrix(1 0 -0 1 .000030517579 602.63998)" font-size="9.9626" font-family="CMR10"><tspan y="-407.524" x="330.046 333.09455 336.72093 336.99986 341.42326 346.6835 352.22273 356.64613 361.90638">fr&#x00b4;equent</tspan></text>
<path transform="matrix(1,0,0,-1,258.781,84.346988)" stroke-width=".3985" stroke-linecap="butt" stroke-miterlimit="10" stroke-linejoin="miter" fill="none" stroke="#000000" d="M -106.69907 -112.46362 L -35.832048 -112.46362 L -35.832048 -84.54718 L -106.69907 -84.54718 Z M -35.83202 -98.50539 L -106.69907 -98.50539 "/>
<text xml:space="preserve" transform="matrix(1 0 -0 1 .000015258789 602.64)" font-size="9.9626" font-family="CMR10"><tspan y="-423.309" x="159.17 165.95453 168.72414 171.49375 176.47504 180.3505">Pilote</tspan></text>
<text xml:space="preserve" transform="matrix(1 0 -0 1 .000015258789 602.64)" font-size="9.9626" font-family="CMR10"><tspan y="-409.351" x="159.17 161.9396 164.70922 169.13262 173.55602 179.09522 183.02048">license</tspan></text>
<path transform="matrix(1,0,0,-1,258.781,84.346988)" stroke-width=".3985" stroke-linecap="butt" stroke-miterlimit="10" stroke-linejoin="miter" fill="none" stroke="#000000" d="M -49.34901 -137.99349 C -49.34901 -131.9415 -59.16122 -127.03552 -71.26555 -127.03552 C -83.36986 -127.03552 -93.18207 -131.9415 -93.18207 -137.99349 C -93.18207 -144.04547 -83.36986 -148.95146 -71.26555 -148.95146 C -59.16122 -148.95146 -49.34901 -144.04547 -49.34901 -137.99349 Z M -71.26555 -137.99349 "/>
<text xml:space="preserve" transform="matrix(1 0 -0 1 0 602.64)" font-size="9.9626" font-family="CMR10"><tspan y="-377.811" x="175.34 180.8792 183.6488 186.41841 191.3997 195.27516">pilote</tspan></text>
<path transform="matrix(1,0,0,-1,258.781,84.346988)" stroke-width=".3985" stroke-linecap="butt" stroke-miterlimit="10" stroke-linejoin="miter" fill="none" stroke="#000000" d="M 114.67981 -140.38738 C 114.67981 -135.09192 107.93398 -130.79921 99.61235 -130.79921 C 91.29073 -130.79921 84.54489 -135.09192 84.54489 -140.38738 C 84.54489 -145.68283 91.29073 -149.97554 99.61235 -149.97554 C 107.93398 -149.97554 114.67981 -145.68283 114.67981 -140.38738 Z M 99.61235 -140.38738 "/>
<text xml:space="preserve" transform="matrix(1 0 -0 1 .000030517579 602.64)" font-size="9.9626" font-family="CMR10"><tspan y="-374.448" x="351.059 354.10755 359.08885 361.85844">fait</tspan></text>
<path transform="matrix(1,0,0,-1,258.781,84.346988)" stroke-width="3.63167" stroke-linecap="butt" stroke-miterlimit="10" stroke-linejoin="miter" fill="none" stroke="#000000" d="M 60.85828 -217.15325 L 138.36646 -217.15325 L 138.36646 -168.7993 L 60.85828 -168.7993 Z M 138.36646 -182.75753 L 60.85828 -182.75753 M 138.36646 -198.38809 L 60.85828 -198.38809 "/>
<path transform="matrix(1,0,0,-1,258.781,84.346988)" stroke-width="2.83466" stroke-linecap="butt" stroke-miterlimit="10" stroke-linejoin="miter" fill="none" stroke="#ffffff" d="M 60.85828 -217.15325 L 138.36646 -217.15325 L 138.36646 -168.7993 L 60.85828 -168.7993 Z M 138.36646 -182.75753 L 60.85828 -182.75753 M 138.36646 -198.38809 L 60.85828 -198.38809 "/>
<text xml:space="preserve" transform="matrix(1 0 -0 1 0 602.64)" font-size="9.9626" font-family="CMR10"><tspan y="-339.058" x="322.959 330.01255 330.29148 334.71488 338.64015 343.06355 346.96888 351.68119 356.66249 360.53794 363.30754 368.28883">R&#x00b4;eservation</tspan></text>
<text xml:space="preserve" transform="matrix(1 0 -0 1 0 602.64)" font-size="9.9626" font-family="CMR10"><tspan y="-325.364" x="322.959 328.49824 332.40357 335.17317">prix</tspan></text>
<text xml:space="preserve" transform="matrix(1 0 -0 1 0 602.64)" font-size="9.9626" font-family="FontAwesome"><tspan y="-308.592" x="322.959">&#xfffd;</tspan></text>
<text xml:space="preserve" transform="matrix(1 0 -0 1 0 602.64)" font-size="9.9626" font-family="CMR10"><tspan y="-308.592" x="332.92204 339.56709 344.54838 347.31797 350.91447 356.45368 362.5408 368.08003 370.57066 370.84959 375.27299 380.25428 384.67768 388.27418">VolId,Si`egeId</tspan></text>
<path transform="matrix(1,0,0,-1,332.922,297.38)" stroke-width=".398" stroke-linecap="butt" stroke-miterlimit="10" stroke-linejoin="miter" fill="none" stroke="#000000" d="M 0 0 L 60.883 0 "/>
<path transform="matrix(1,0,0,-1,258.781,84.346988)" stroke-width="3.63167" stroke-linecap="butt" stroke-miterlimit="10" stroke-linejoin="miter" fill="none" stroke="#000000" d="M 128.9846 -261.156 C 128.9846 -255.86055 115.8344 -251.56786 99.61235 -251.56786 C 83.3903 -251.56786 70.24011 -255.86055 70.24011 -261.156 C 70.24011 -266.45146 83.3903 -270.74418 99.61235 -270.74418 C 115.8344 -270.74418 128.9846 -266.45146 128.9846 -261.156 Z M 99.61235 -261.156 "/>
<path transform="matrix(1,0,0,-1,258.781,84.346988)" stroke-width="2.83466" stroke-linecap="butt" stroke-miterlimit="10" stroke-linejoin="miter" fill="none" stroke="#ffffff" d="M 128.9846 -261.156 C 128.9846 -255.86055 115.8344 -251.56786 99.61235 -251.56786 C 83.3903 -251.56786 70.24011 -255.86055 70.24011 -261.156 C 70.24011 -266.45146 83.3903 -270.74418 99.61235 -270.74418 C 115.8344 -270.74418 128.9846 -266.45146 128.9846 -261.156 Z M 99.61235 -261.156 "/>
<text xml:space="preserve" transform="matrix(1 0 -0 1 0 602.64)" font-size="9.9626" font-family="CMR10"><tspan y="-253.681" x="340.944 345.9253 349.80076 353.6762 357.58155 360.35115 365.89036 371.42958">attribue</tspan></text>
<path transform="matrix(1,0,0,-1,258.781,84.346988)" stroke-width=".3985" stroke-linecap="butt" stroke-miterlimit="10" stroke-linejoin="miter" fill="none" stroke="#000000" d="M -58.26291 -224.0379 L 12.604118 -224.0379 L 12.604118 -160.2555 L -58.26291 -160.2555 Z M 12.60413 -174.2137 L -58.26291 -174.2137 "/>
<text xml:space="preserve" transform="matrix(1 0 -0 1 0 602.64)" font-size="9.9626" font-family="CMR10"><tspan y="-347.601" x="207.606 214.25107 219.23236">Vol</tspan></text>
<text xml:space="preserve" transform="matrix(1 0 -0 1 0 602.64)" font-size="9.9626" font-family="CMR10"><tspan y="-333.643" x="207.606 210.37561">id</tspan></text>
<path transform="matrix(1,0,0,-1,207.606,270.39103)" stroke-width=".398" stroke-linecap="butt" stroke-miterlimit="10" stroke-linejoin="miter" fill="none" stroke="#000000" d="M 0 0 L 8.302 0 "/>
<text xml:space="preserve" transform="matrix(1 0 -0 1 0 602.64)" font-size="9.9626" font-family="CMR10"><tspan y="-321.688" x="207.606 213.1452 217.5686 223.1078 227.01314 231.43654 238.76902 239.04796 243.47136 249.01056 253.99185 257.8972">heureD&#x00b4;epart</tspan><tspan y="-309.733" x="207.606 213.1452 217.5686 223.1078 227.01314 231.43654 238.9085 242.81383 246.71916 249.48877 254.47008 254.74904 259.17243">heureArriv&#x00b4;ee</tspan><tspan y="-297.778" x="207.606 213.1452 215.91481 219.84008 223.71553 228.69683 234.23603 238.65943">distance</tspan></text>
<path transform="matrix(1,0,0,-1,258.781,84.346988)" stroke-width=".3985" stroke-linecap="butt" stroke-miterlimit="10" stroke-linejoin="miter" fill="none" stroke="#000000" d="M 52.63658 -192.14669 C 52.63658 -187.87796 46.30252 -184.41754 38.48888 -184.41754 C 30.67523 -184.41754 24.34117 -187.87796 24.34117 -192.14669 C 24.34117 -196.41542 30.67523 -199.87584 38.48888 -199.87584 C 46.30252 -199.87584 52.63658 -196.41542 52.63658 -192.14669 Z M 38.48888 -192.14669 "/>
<text xml:space="preserve" transform="matrix(1 0 -0 1 0 602.64)" font-size="9.9626" font-family="CMR10"><tspan y="-324.004" x="290.586 294.51127 300.05049">sur</tspan></text>
<path transform="matrix(1,0,0,-1,258.781,84.346988)" stroke-width=".3985" stroke-linecap="butt" stroke-miterlimit="10" stroke-linejoin="miter" fill="none" stroke="#000000" d="M -1.67607 -249.56777 C -1.67607 -243.5158 -11.1466 -238.6098 -22.82939 -238.6098 C -34.51219 -238.6098 -43.98273 -243.5158 -43.98273 -249.56777 C -43.98273 -255.61975 -34.51219 -260.52574 -22.82939 -260.52574 C -11.1466 -260.52574 -1.67607 -255.61975 -1.67607 -249.56777 Z M -22.82939 -249.56777 "/>
<text xml:space="preserve" transform="matrix(1 0 -0 1 0 602.64)" font-size="9.9626" font-family="CMR10"><tspan y="-266.238" x="224.315 229.2963 234.55655 234.8355 239.2589 243.16423">op`ere</tspan></text>
<path transform="matrix(1,0,0,-1,258.781,84.346988)" stroke-width=".3985" stroke-linecap="butt" stroke-miterlimit="10" stroke-linejoin="miter" fill="none" stroke="#000000" d="M -58.26291 -304.89585 L 12.604118 -304.89585 L 12.604118 -275.09767 L -58.26291 -275.09767 Z M 12.60413 -288.94514 L -58.26291 -288.94514 "/>
<text xml:space="preserve" transform="matrix(1 0 -0 1 0 602.64)" font-size="9.9626" font-family="CMR10"><tspan y="-232.871" x="207.606 215.07796 220.33821 223.10782 228.08911">Avion</tspan></text>
<text xml:space="preserve" transform="matrix(1 0 -0 1 0 602.64)" font-size="9.9626" font-family="CMR10"><tspan y="-218.913" x="207.606 210.37561">id</tspan></text>
<path transform="matrix(1,0,0,-1,207.606,385.12104)" stroke-width=".398" stroke-linecap="butt" stroke-miterlimit="10" stroke-linejoin="miter" fill="none" stroke="#000000" d="M 0 0 L 8.302 0 "/>
<path transform="matrix(1,0,0,-1,258.781,84.346988)" stroke-width=".3985" stroke-linecap="butt" stroke-miterlimit="10" stroke-linejoin="miter" fill="none" stroke="#000000" d="M -129.52846 -362.7041 L -58.66143 -362.7041 L -58.66143 -333.64115 L -129.52846 -333.64115 Z M -58.66142 -347.59938 L -129.52846 -347.59938 "/>
<text xml:space="preserve" transform="matrix(1 0 -0 1 0 602.64)" font-size="9.9626" font-family="CMR10"><tspan y="-174.218" x="136.341 143.81296 149.07321 156.82411 162.36331 170.10427 173.15282 177.05815 181.48155">Av.defret</tspan></text>
<text xml:space="preserve" transform="matrix(1 0 -0 1 0 602.64)" font-size="9.9626" font-family="CMR10"><tspan y="-161.051" x="136.341 140.21646 145.19776 150.73696 156.27616 161.25745 166.23874">tonnage</tspan></text>
<path transform="matrix(1,0,0,-1,258.781,84.346988)" stroke-width=".3985" stroke-linecap="butt" stroke-miterlimit="10" stroke-linejoin="miter" fill="none" stroke="#000000" d="M 13.00262 -356.57624 L 83.869647 -356.57624 L 83.869647 -333.64118 L 13.00262 -333.64118 Z M 83.86967 -349.5366 L 13.00262 -349.5366 "/>
<text xml:space="preserve" transform="matrix(1 0 -0 1 0 602.64)" font-size="9.9626" font-family="CMR10"><tspan y="-174.218" x="278.87 286.34196 291.6022 299.3531 304.8923 312.63325 315.40284 318.17243 323.15373 328.69294">Av.deligne</tspan></text>
<path transform="matrix(1,0,0,-1,258.781,84.346988)" stroke-width="3.63167" stroke-linecap="butt" stroke-miterlimit="10" stroke-linejoin="miter" fill="none" stroke="#000000" d="M 84.05078 -382.10609 C 84.05078 -376.0541 68.10582 -371.14814 48.43614 -371.14814 C 28.76646 -371.14814 12.82149 -376.0541 12.82149 -382.10609 C 12.82149 -388.15809 28.76646 -393.06404 48.43614 -393.06404 C 68.10582 -393.06404 84.05078 -388.15809 84.05078 -382.10609 Z M 48.43614 -382.10609 "/>
<path transform="matrix(1,0,0,-1,258.781,84.346988)" stroke-width="2.83466" stroke-linecap="butt" stroke-miterlimit="10" stroke-linejoin="miter" fill="none" stroke="#ffffff" d="M 84.05078 -382.10609 C 84.05078 -376.0541 68.10582 -371.14814 48.43614 -371.14814 C 28.76646 -371.14814 12.82149 -376.0541 12.82149 -382.10609 C 12.82149 -388.15809 28.76646 -393.06404 48.43614 -393.06404 C 68.10582 -393.06404 84.05078 -388.15809 84.05078 -382.10609 Z M 48.43614 -382.10609 "/>
<text xml:space="preserve" transform="matrix(1 0 -0 1 0 602.64)" font-size="9.9626" font-family="CMR10"><tspan y="-133.701" x="285.354 293.65284 298.07624 303.05754 308.59675 313.57804 318.00144 320.77104 324.3775 324.64649">acapacit&#x00b4;e</tspan></text>
<path transform="matrix(1,0,0,-1,258.781,84.346988)" stroke-width="3.63167" stroke-linecap="butt" stroke-miterlimit="10" stroke-linejoin="miter" fill="none" stroke="#000000" d="M 13.00262 -461.40025 L 83.869647 -461.40025 L 83.869647 -407.63594 L 13.00262 -407.63594 Z M 83.86967 -423.5314 L 13.00262 -423.5314 "/>
<path transform="matrix(1,0,0,-1,258.781,84.346988)" stroke-width="2.83466" stroke-linecap="butt" stroke-miterlimit="10" stroke-linejoin="miter" fill="none" stroke="#ffffff" d="M 13.00262 -461.40025 L 83.869647 -461.40025 L 83.869647 -407.63594 L 13.00262 -407.63594 Z M 83.86967 -423.5314 L 13.00262 -423.5314 "/>
<text xml:space="preserve" transform="matrix(1 0 -0 1 0 602.64)" font-size="9.9626" font-family="CMR10"><tspan y="-100.224" x="278.87 284.4092 286.89985 287.17878 291.60218 296.58348">Si`ege</tspan></text>
<text xml:space="preserve" transform="matrix(1 0 -0 1 0 602.63998)" font-size="9.9626" font-family="CMR10"><tspan y="-84.329" x="278.87 281.6396">id</tspan></text>
<path transform="matrix(1,0,0,-1,278.87,519.70596)" stroke-width=".398" stroke-linecap="butt" stroke-miterlimit="10" stroke-linejoin="miter" fill="none" stroke="#000000" d="M 0 0 L 8.302 0 "/>
<text xml:space="preserve" transform="matrix(1 0 -0 1 0 602.63998)" font-size="9.9626" font-family="CMR10"><tspan y="-72.374" x="278.87 282.77534 287.75663 293.29585 297.99818 298.2771 302.7005">rang&#x00b4;ee</tspan><tspan y="-60.418" x="278.87 281.6396 286.063 289.93846 293.8139 297.71925">lettre</tspan></text>
<path transform="matrix(1,0,0,-1,258.781,84.346988)" stroke-width=".3985" stroke-linecap="butt" stroke-miterlimit="10" stroke-linejoin="miter" fill="none" stroke="#000000" d="M -82.90703 -181.48229 C -82.90703 -176.18683 -93.4201 -171.89414 -106.38902 -171.89414 C -119.35793 -171.89414 -129.87102 -176.18683 -129.87102 -181.48229 C -129.87102 -186.77774 -119.35793 -191.07045 -106.38902 -191.07045 C -93.4201 -191.07045 -82.90703 -186.77774 -82.90703 -181.48229 Z M -106.38902 -181.48229 "/>
<text xml:space="preserve" transform="matrix(1 0 -0 1 .000015258789 602.64)" font-size="9.9626" font-family="CMR10"><tspan y="-333.354" x="139.11 144.37026 144.6492 149.0726 153.496 158.4773 161.2469">d&#x00b4;ecole</tspan></text>
<path transform="matrix(1,0,0,-1,258.781,84.346988)" stroke-width=".3985" stroke-linecap="butt" stroke-miterlimit="10" stroke-linejoin="miter" fill="none" stroke="#000000" d="M -82.10468 -206.7264 C -82.10468 -201.43094 -92.97697 -197.13823 -106.38902 -197.13823 C -119.80106 -197.13823 -130.67336 -201.43094 -130.67336 -206.7264 C -130.67336 -212.02185 -119.80106 -216.31456 -106.38902 -216.31456 C -92.97697 -216.31456 -82.10468 -212.02185 -82.10468 -206.7264 Z M -106.38902 -206.7264 "/>
<text xml:space="preserve" transform="matrix(1 0 -0 1 0 602.63998)" font-size="9.9626" font-family="CMR10"><tspan y="-308.11" x="138.543 143.52429 147.39975 150.99626 151.2752 155.69861 159.60395 162.37355">att&#x00b4;erit</tspan></text>
<path transform="matrix(1,0,0,-1,258.781,84.346988)" stroke-width=".3985" stroke-linecap="butt" stroke-miterlimit="10" stroke-linejoin="miter" fill="none" stroke="#000000" d="M -225.38217 -214.01979 L -154.51514 -214.01979 L -154.51514 -160.2555 L -225.38217 -160.2555 Z M -154.51512 -176.15091 L -225.38217 -176.15091 "/>
<text xml:space="preserve" transform="matrix(1 0 -0 1 .0000076293949 602.64)" font-size="9.9626" font-family="CMR10"><tspan y="-347.601" x="40.488 47.680997 47.95995 52.383344 56.28868 61.26998 67.08814 72.06944 75.974788">A&#x00b4;eroport</tspan></text>
<text xml:space="preserve" transform="matrix(1 0 -0 1 .0000076293949 602.64)" font-size="9.9626" font-family="CMR10"><tspan y="-331.706" x="40.488 43.257604">id</tspan></text>
<path transform="matrix(1,0,0,-1,40.488008,272.329)" stroke-width=".398" stroke-linecap="butt" stroke-miterlimit="10" stroke-linejoin="miter" fill="none" stroke="#000000" d="M 0 0 L 8.302 0 "/>
<text xml:space="preserve" transform="matrix(1 0 -0 1 .0000076293949 602.64)" font-size="9.9626" font-family="CMR10"><tspan y="-319.751" x="40.488 44.911394 50.171648 55.710855">code</tspan><tspan y="-307.79603" x="40.488 45.748254 48.517858 51.28746 54.057065">ville</tspan></text>
<path transform="matrix(1,0,0,-1,258.781,84.346988)" stroke-width=".3985" stroke-linecap="butt" stroke-miterlimit="10" stroke-linejoin="miter" fill="none" stroke="#000000" d="M -225.75562 -21.19507 L -154.88858 -21.19507 L -154.88858 21.19507 L -225.75562 21.19507 Z M -154.88857 4.71848 L -225.75562 4.71848 "/>
<text xml:space="preserve" transform="matrix(1 0 -0 1 .0000038146974 602.64)" font-size="9.9626" font-family="CMR10"><tspan y="-529.05" x="41.014">&#x00b4;</tspan><tspan y="-526.531" x="40.115 46.899534 50.774984 55.756284">Etat</tspan></text>
<text xml:space="preserve" transform="matrix(1 0 -0 1 .0000038146974 602.64)" font-size="9.9626" font-family="CMR10"><tspan y="-512.573" x="40.115 44.538396 49.79865 55.337858">code</tspan></text>
<path transform="matrix(1,0,0,-1,40.115007,91.462009)" stroke-width=".398" stroke-linecap="butt" stroke-miterlimit="10" stroke-linejoin="miter" fill="none" stroke="#000000" d="M 0 0 L 19.649 0 "/>
<text xml:space="preserve" transform="matrix(1 0 -0 1 .0000038146974 602.64)" font-size="9.9626" font-family="CMR10"><tspan y="-500.618" x="40.115 45.65421 50.63551">nom</tspan></text>
<path transform="matrix(1,0,0,-1,258.781,84.346988)" stroke-width=".3985" stroke-linecap="butt" stroke-miterlimit="10" stroke-linejoin="miter" fill="none" stroke="#000000" d="M -64.7935 0 C -64.7935 5.29546 -79.1615 9.58815 -96.8858 9.58815 C -114.6101 9.58815 -128.9781 5.29546 -128.9781 0 C -128.9781 -5.29546 -114.6101 -9.58815 -96.8858 -9.58815 C -79.1615 -9.58815 -64.7935 -5.29546 -64.7935 0 Z M -96.8858 0 "/>
<text xml:space="preserve" transform="matrix(1 0 -0 1 .000015258789 602.63998)" font-size="9.9626" font-family="CMR10"><tspan y="-514.834" x="142.525 148.0642 153.04549 161.34433 164.11394 168.53734 171.30695 174.07656 176.56722 176.84616">domicili&#x00b4;e</tspan></text>
<path transform="matrix(1,0,0,-1,258.781,84.346988)" stroke-width=".3985" stroke-linecap="butt" stroke-miterlimit="10" stroke-linejoin="miter" fill="none" stroke="#000000" d="M -171.10608 -93.54463 C -171.10608 -88.24918 -179.70926 -83.95648 -190.3221 -83.95648 C -200.93495 -83.95648 -209.53813 -88.24918 -209.53813 -93.54463 C -209.53813 -98.84009 -200.93495 -103.1328 -190.3221 -103.1328 C -179.70926 -103.1328 -171.10608 -98.84009 -171.10608 -93.54463 Z M -190.3221 -93.54463 "/>
<text xml:space="preserve" transform="matrix(1 0 -0 1 0 602.64)" font-size="9.9626" font-family="CMR10"><tspan y="-421.29" x="58.194 62.119268 64.88887 68.76432 74.024578 74.30353">situ&#x00b4;e</tspan></text>
<path transform="matrix(1,0,0,-1,258.781,84.346988)" stroke-width=".3985" stroke-linecap="butt" stroke-miterlimit="10" stroke-linejoin="miter" fill="none" stroke="#000000" d="M -78.5041 -289.99674 C -78.5041 -283.94477 -91.06729 -279.03877 -106.5652 -279.03877 C -122.06313 -279.03877 -134.62631 -283.94477 -134.62631 -289.99674 C -134.62631 -296.0487 -122.06313 -300.9547 -106.5652 -300.9547 C -91.06729 -300.9547 -78.5041 -296.0487 -78.5041 -289.99674 Z M -106.5652 -289.99674 "/>
<text xml:space="preserve" transform="matrix(1 0 -0 1 .000015258789 602.64)" font-size="9.9626" font-family="CMR10"><tspan y="-225.809" x="135.696 141.51415 146.49544 150.4207 154.06702 154.34597 158.76937 164.30857">poss`ede</tspan></text>
<path transform="matrix(1,0,0,-1,258.781,84.346988)" stroke-width=".3985" stroke-linecap="butt" stroke-miterlimit="10" stroke-linejoin="miter" fill="none" stroke="#000000" d="M -225.73455 -310.84587 L -154.86753 -310.84587 L -154.86753 -269.14759 L -225.73455 -269.14759 Z M -154.86751 -284.9323 L -225.73455 -284.9323 "/>
<text xml:space="preserve" transform="matrix(1 0 -0 1 0 602.63998)" font-size="9.9626" font-family="CMR10"><tspan y="-238.821" x="40.136 47.329 52.3103 60.609148 66.14835 71.129657 76.110958 81.65016 84.41976">Compagnie</tspan></text>
<text xml:space="preserve" transform="matrix(1 0 -0 1 0 602.64)" font-size="9.9626" font-family="CMR10"><tspan y="-222.926" x="40.136 42.905607">id</tspan></text>
<path transform="matrix(1,0,0,-1,40.136,381.109)" stroke-width=".398" stroke-linecap="butt" stroke-miterlimit="10" stroke-linejoin="miter" fill="none" stroke="#000000" d="M 0 0 L 8.302 0 "/>
<text xml:space="preserve" transform="matrix(1 0 -0 1 0 602.64)" font-size="9.9626" font-family="CMR10"><tspan y="-210.971" x="40.136 45.67521 50.65651">nom</tspan></text>
<text xml:space="preserve" transform="matrix(1 0 -0 1 .000011444092 602.63998)" font-size="9.9626" font-family="CMR10"><tspan y="-81.29" x="32.202 38.837095 44.3763 53.243017 57.16828 59.65893 59.93788 64.361278 69.342578 77.08351 81.506908 85.43217 92.62516 97.885417 102.30881 106.7322 112.27141 117.810619 122.791919 128.33112 131.10073 138.85164 142.7769 145.54651 148.31612 154.40328 159.38457 164.92377 170.46297 175.44426 179.3496 183.22505 185.99466 190.41806 195.67832">-unsi`egeestoccupables&#x2019;ilappartient</tspan></text>
<text xml:space="preserve" transform="matrix(1 0 -0 1 .0000038146974 602.64)" font-size="9.9626" font-family="CMR10"><tspan y="-65.395" x="39.703 39.703 48.001848 50.77145 53.541055 58.2434 63.503656 66.273258 71.254558 80.12127 85.38152 90.92073 97.00787 101.43127 107.23946 111.66286 116.08625 119.9617 125.50091 133.24185 136.01146 143.76238 148.74369 153.72498">`al&#x2019;avionquie&#xfb00;ectuelevol</tspan></text>
<text xml:space="preserve" transform="matrix(1 0 -0 1 .0000076293949 602.64)" font-size="9.9626" font-family="CMR10"><tspan y="-49.499" x="31.667 38.302095 41.071699 49.380506 53.803899 58.7852 66.80509 72.3443 75.1139 80.65311 85.63441 88.40401 92.32927 97.31057 106.16732 110.86967 116.12992 118.89952 123.88082 132.74755 138.28675 146.0277 148.7973 151.56691 156.5482 162.0874 166.5108 172.59796 176.5033 181.48459 187.02379 191.72614 192.00508 196.42848">-lacombinaisonaviondeligne,rang&#x00b4;ee</tspan></text>
<text xml:space="preserve" transform="matrix(1 0 -0 1 .0000076293949 602.64)" font-size="9.9626" font-family="CMR10"><tspan y="-33.604" x="39.281 43.70439 50.89739 53.666994 58.090387 61.965837 65.841289 69.74663 77.49753 81.92092 85.84618 93.03918 98.578388 104.11759 106.88719 112.147449 117.68665 125.42759 131.24575 136.22704 141.76624 148.98912 153.14353 158.68273 163.66402 168.92427 174.46347 182.20442 186.12969 188.62035 188.89929 193.3227 198.30399">etlettreestuniquepourchaquesi`ege</tspan></text>
<path transform="matrix(1,0,0,-1,258.781,84.346988)" stroke-width=".3985" stroke-linecap="butt" stroke-miterlimit="10" stroke-linejoin="miter" fill="none" stroke="#000000" d="M 99.61235 -84.34792 L 99.61235 -72.04042 L 0 -72.04042 L 0 -59.58765 "/>
<path transform="matrix(0,-1,-1,-0,258.781,143.93463)" d="M 3.58653 0 C 2.52383 .19925 .797 .797 -.3985 1.49438 L -.3985 -1.49438 C .797 -.797 2.52383 -.19925 3.58653 0 "/>
<text xml:space="preserve" transform="matrix(1 0 -0 1 0 602.64)" font-size="9.9626" font-family="CMR10"><tspan y="-454.349" x="235.89 239.76546 243.64092 246.41053 251.39182">(t,o)</tspan></text>
<path transform="matrix(1,0,0,-1,258.781,84.346988)" stroke-width=".3985" stroke-linecap="butt" stroke-miterlimit="10" stroke-linejoin="miter" fill="none" stroke="#000000" d="M -71.26555 -84.34792 L -71.26555 -72.14307 L 0 -72.14307 L 0 -59.58765 "/>
<path transform="matrix(0,-1,-1,-0,258.781,143.93463)" d="M 3.58653 0 C 2.52383 .19925 .797 .797 -.3985 1.49438 L -.3985 -1.49438 C .797 -.797 2.52383 -.19925 3.58653 0 "/>
<path transform="matrix(1,0,0,-1,258.781,84.346988)" stroke-width=".3985" stroke-linecap="butt" stroke-miterlimit="10" stroke-linejoin="miter" fill="none" stroke="#000000" d="M 99.61235 -116.42656 L 99.61235 -130.59996 "/>
<path transform="matrix(1,0,0,-1,258.781,84.346988)" stroke-width=".3985" stroke-linecap="butt" stroke-miterlimit="10" stroke-linejoin="miter" fill="none" stroke="#000000" d="M -71.26555 -112.66287 L -71.26555 -126.83627 "/>
<path transform="matrix(1,0,0,-1,258.781,84.346988)" stroke-width=".3985" stroke-linecap="butt" stroke-miterlimit="10" stroke-linejoin="miter" fill="none" stroke="#000000" d="M -71.26555 -149.15071 L -71.26555 -166.3403 L -58.46216 -166.3403 L -58.46216 -192.14669 "/>
<path transform="matrix(1,0,0,-1,258.781,84.346988)" stroke-width="1.39478" stroke-linecap="butt" stroke-miterlimit="10" stroke-linejoin="miter" fill="none" stroke="#000000" d="M 99.61235 -270.94343 L 99.61235 -434.6384 L 84.06892 -434.5181 "/>
<path transform="matrix(1,0,0,-1,258.781,84.346988)" stroke-width=".59776" stroke-linecap="butt" stroke-miterlimit="10" stroke-linejoin="miter" fill="none" stroke="#ffffff" d="M 99.61235 -270.94343 L 99.61235 -434.6384 L 84.06892 -434.5181 "/>
<path transform="matrix(1,0,0,-1,258.781,84.346988)" stroke-width=".3985" stroke-linecap="butt" stroke-miterlimit="10" stroke-linejoin="miter" fill="none" stroke="#000000" d="M -94.09496 -333.4419 L -94.09496 -319.8258 L -22.82939 -319.8258 L -22.82939 -308.68165 "/>
<path transform="matrix(0,-1,-1,-0,235.95162,393.02864)" d="M 3.58653 0 C 2.52383 .19925 .797 .797 -.3985 1.49438 L -.3985 -1.49438 C .797 -.797 2.52383 -.19925 3.58653 0 "/>
<text xml:space="preserve" transform="matrix(1 0 -0 1 0 602.64)" font-size="9.9626" font-family="CMR10"><tspan y="-205.703" x="211.953 215.82846 221.36766 224.13727 228.56067">(p,e)</tspan></text>
<path transform="matrix(1,0,0,-1,258.781,84.346988)" stroke-width=".3985" stroke-linecap="butt" stroke-miterlimit="10" stroke-linejoin="miter" fill="none" stroke="#000000" d="M 48.43614 -333.4419 L 48.43614 -319.88005 L -22.82939 -319.88005 L -22.82939 -308.68165 "/>
<path transform="matrix(0,-1,-1,-0,235.95162,393.02864)" d="M 3.58653 0 C 2.52383 .19925 .797 .797 -.3985 1.49438 L -.3985 -1.49438 C .797 -.797 2.52383 -.19925 3.58653 0 "/>
<path transform="matrix(1,0,0,-1,258.781,84.346988)" stroke-width=".3985" stroke-linecap="butt" stroke-miterlimit="10" stroke-linejoin="miter" fill="none" stroke="#000000" d="M 99.61235 -168.60004 L 99.61235 -150.17479 "/>
<path transform="matrix(1,0,0,-1,258.781,84.346988)" stroke-width=".3985" stroke-linecap="butt" stroke-miterlimit="10" stroke-linejoin="miter" fill="none" stroke="#000000" d="M 12.80336 -192.14669 L 24.14192 -192.14669 "/>
<path transform="matrix(1,0,0,-1,258.781,84.346988)" stroke-width=".3985" stroke-linecap="butt" stroke-miterlimit="10" stroke-linejoin="miter" fill="none" stroke="#000000" d="M 60.65901 -192.44788 L 52.83298 -192.3411 "/>
<path transform="matrix(1,0,0,-1,258.781,84.346988)" stroke-width=".3985" stroke-linecap="butt" stroke-miterlimit="10" stroke-linejoin="miter" fill="none" stroke="#000000" d="M -22.82939 -224.23715 L -22.82939 -238.41056 "/>
<path transform="matrix(1,0,0,-1,258.781,84.346988)" stroke-width=".3985" stroke-linecap="butt" stroke-miterlimit="10" stroke-linejoin="miter" fill="none" stroke="#000000" d="M -22.82939 -260.72499 L -22.82939 -274.89839 "/>
<path transform="matrix(1,0,0,-1,258.781,84.346988)" stroke-width="1.39478" stroke-linecap="butt" stroke-miterlimit="10" stroke-linejoin="miter" fill="none" stroke="#000000" d="M 48.43614 -356.77549 L 48.43614 -370.94889 "/>
<path transform="matrix(1,0,0,-1,258.781,84.346988)" stroke-width=".59776" stroke-linecap="butt" stroke-miterlimit="10" stroke-linejoin="miter" fill="none" stroke="#ffffff" d="M 48.43614 -356.77549 L 48.43614 -370.94889 "/>
<path transform="matrix(1,0,0,-1,258.781,84.346988)" stroke-width="1.39478" stroke-linecap="butt" stroke-miterlimit="10" stroke-linejoin="miter" fill="none" stroke="#000000" d="M 48.43614 -393.2633 L 48.43614 -407.43669 "/>
<path transform="matrix(1,0,0,-1,258.781,84.346988)" stroke-width=".59776" stroke-linecap="butt" stroke-miterlimit="10" stroke-linejoin="miter" fill="none" stroke="#ffffff" d="M 48.43614 -393.2633 L 48.43614 -407.43669 "/>
<path transform="matrix(1,0,0,-1,258.781,84.346988)" stroke-width=".3985" stroke-linecap="butt" stroke-miterlimit="10" stroke-linejoin="miter" fill="none" stroke="#000000" d="M -130.8726 -206.7264 L -154.31587 -206.7264 L -154.31587 -187.13762 "/>
<path transform="matrix(1,0,0,-1,258.781,84.346988)" stroke-width=".3985" stroke-linecap="butt" stroke-miterlimit="10" stroke-linejoin="miter" fill="none" stroke="#000000" d="M -130.07027 -181.48229 L -154.31587 -181.48229 L -154.31587 -187.13762 "/>
<path transform="matrix(1,0,0,-1,258.781,84.346988)" stroke-width=".3985" stroke-linecap="butt" stroke-miterlimit="10" stroke-linejoin="miter" fill="none" stroke="#000000" d="M -81.90543 -206.7264 L -58.46216 -206.7264 L -58.46216 -192.14669 "/>
<path transform="matrix(1,0,0,-1,258.781,84.346988)" stroke-width=".3985" stroke-linecap="butt" stroke-miterlimit="10" stroke-linejoin="miter" fill="none" stroke="#000000" d="M -82.70776 -181.48229 L -58.46216 -181.48229 L -58.46216 -192.14669 "/>
<path transform="matrix(1,0,0,-1,258.781,84.346988)" stroke-width=".3985" stroke-linecap="butt" stroke-miterlimit="10" stroke-linejoin="miter" fill="none" stroke="#000000" d="M -64.59425 0 L -35.63277 0 "/>
<path transform="matrix(1,0,0,-1,258.781,84.346988)" stroke-width=".3985" stroke-linecap="butt" stroke-miterlimit="10" stroke-linejoin="miter" fill="none" stroke="#000000" d="M -129.17736 0 L -154.68932 0 "/>
<path transform="matrix(1,0,0,-1,258.781,84.346988)" stroke-width=".3985" stroke-linecap="butt" stroke-miterlimit="10" stroke-linejoin="miter" fill="none" stroke="#000000" d="M -190.3221 -103.33205 L -189.94866 -160.05623 "/>
<path transform="matrix(1,0,0,-1,258.781,84.346988)" stroke-width=".3985" stroke-linecap="butt" stroke-miterlimit="10" stroke-linejoin="miter" fill="none" stroke="#000000" d="M -190.3221 -83.75722 L -190.3221 -21.39432 "/>
<path transform="matrix(1,0,0,-1,258.781,84.346988)" stroke-width=".3985" stroke-linecap="butt" stroke-miterlimit="10" stroke-linejoin="miter" fill="none" stroke="#000000" d="M -78.30486 -289.99674 L -58.46216 -289.99674 "/>
<path transform="matrix(1,0,0,-1,258.781,84.346988)" stroke-width=".3985" stroke-linecap="butt" stroke-miterlimit="10" stroke-linejoin="miter" fill="none" stroke="#000000" d="M -134.82556 -289.99674 L -154.66826 -289.99674 "/>
<path transform="matrix(1,0,0,-1,258.781,84.346988)" stroke-width="1.39478" stroke-linecap="butt" stroke-miterlimit="10" stroke-linejoin="miter" fill="none" stroke="#000000" d="M 99.61235 -217.35248 L 99.61235 -251.36859 "/>
<path transform="matrix(1,0,0,-1,258.781,84.346988)" stroke-width=".59776" stroke-linecap="butt" stroke-miterlimit="10" stroke-linejoin="miter" fill="none" stroke="#ffffff" d="M 99.61235 -217.35248 L 99.61235 -251.36859 "/>
<text xml:space="preserve" transform="matrix(1 0 -0 1 0 602.64)" font-size="8.9664" font-family="CMR9"><tspan y="-509.189" x="200.686 204.27257 208.8813 211.4457 216.05443">(1,1)</tspan></text>
<text xml:space="preserve" transform="matrix(1 0 -0 1 0 602.63998)" font-size="8.9664" font-family="CMR9"><tspan y="-502.929" x="107.614 111.20056 115.80929 118.37368 123.49349">(0,n)</tspan></text>
<text xml:space="preserve" transform="matrix(1 0 -0 1 .0000076293949 602.64)" font-size="8.9664" font-family="CMR9"><tspan y="-459.725" x="73.598 77.18456 81.79329 84.35768 89.47749">(0,n)</tspan></text>
<text xml:space="preserve" transform="matrix(1 0 -0 1 .0000076293949 602.63998)" font-size="8.9664" font-family="CMR9"><tspan y="-382.425" x="73.971 77.55756 82.16629 84.73068 89.33941">(1,1)</tspan></text>
<text xml:space="preserve" transform="matrix(1 0 -0 1 0 602.64)" font-size="8.9664" font-family="CMR9"><tspan y="-324.315" x="107.987 111.57356 116.18229 118.74668 123.86649">(0,n)</tspan></text>
<text xml:space="preserve" transform="matrix(1 0 -0 1 0 602.64)" font-size="8.9664" font-family="CMR9"><tspan y="-298.803" x="107.987 111.57356 116.18229 118.74668 123.86649">(0,n)</tspan></text>
<text xml:space="preserve" transform="matrix(1 0 -0 1 0 602.64)" font-size="8.9664" font-family="CMR9"><tspan y="-324.315" x="177.857 181.44356 186.05229 188.61669 193.22542">(1,1)</tspan></text>
<text xml:space="preserve" transform="matrix(1 0 -0 1 0 602.64)" font-size="8.9664" font-family="CMR9"><tspan y="-298.803" x="177.857 181.44356 186.05229 188.61669 193.22542">(1,1)</tspan></text>
<text xml:space="preserve" transform="matrix(1 0 -0 1 0 602.64)" font-size="8.9664" font-family="CMR9"><tspan y="-395.387" x="162.925 166.51157 171.1203 173.6847 178.8045">(0,n)</tspan></text>
<text xml:space="preserve" transform="matrix(1 0 -0 1 .000015258789 602.63998)" font-size="8.9664" font-family="CMR9"><tspan y="-358.537" x="163.437 167.02356 171.6323 174.19669 178.80542">(1,1)</tspan></text>
<text xml:space="preserve" transform="matrix(1 0 -0 1 0 602.64)" font-size="8.9664" font-family="CMR9"><tspan y="-335.654" x="272.269 275.85557 280.4643 283.0287 288.1485">(0,n)</tspan></text>
<text xml:space="preserve" transform="matrix(1 0 -0 1 0 602.64)" font-size="8.9664" font-family="CMR9"><tspan y="-335.654" x="297.781 301.36756 305.9763 308.54069 313.1494">(1,1)</tspan></text>
<text xml:space="preserve" transform="matrix(1 0 -0 1 0 602.64)" font-size="8.9664" font-family="CMR9"><tspan y="-393.424" x="364.203 367.78956 372.3983 374.96269 380.0825">(0,n)</tspan></text>
<text xml:space="preserve" transform="matrix(1 0 -0 1 0 602.64)" font-size="8.9664" font-family="CMR9"><tspan y="-360.742" x="364.203 367.78956 372.3983 374.96269 379.5714">(1,1)</tspan></text>
<text xml:space="preserve" transform="matrix(1 0 -0 1 0 602.63998)" font-size="8.9664" font-family="CMR9"><tspan y="-279.36" x="366.849 370.43556 375.04429 377.60868 382.2174">(1,1)</tspan></text>
<text xml:space="preserve" transform="matrix(1 0 -0 1 0 602.64)" font-size="8.9664" font-family="CMR9"><tspan y="-171.944" x="362.979 366.56556 371.1743 373.73869 378.8585">(0,n)</tspan></text>
<text xml:space="preserve" transform="matrix(1 0 -0 1 0 602.64)" font-size="8.9664" font-family="CMR9"><tspan y="-116.623" x="320.857 324.44355 329.05229 331.61668 336.2254">(1,1)</tspan></text>
<text xml:space="preserve" transform="matrix(1 0 -0 1 0 602.64)" font-size="8.9664" font-family="CMR9"><tspan y="-151.278" x="320.857 324.44355 329.05229 331.61668 336.73649">(1,n)</tspan></text>
<text xml:space="preserve" transform="matrix(1 0 -0 1 0 602.64)" font-size="8.9664" font-family="CMR9"><tspan y="-249.16" x="248.175 251.76157 256.3703 258.9347 264.0545">(0,n)</tspan></text>
<text xml:space="preserve" transform="matrix(1 0 -0 1 0 602.64)" font-size="8.9664" font-family="CMR9"><tspan y="-283.814" x="248.175 251.76157 256.3703 258.9347 263.54344">(1,1)</tspan></text>
<text xml:space="preserve" transform="matrix(1 0 -0 1 0 602.64)" font-size="8.9664" font-family="CMR9"><tspan y="-215.425" x="104.8 108.386569 112.99529 115.559688 120.6795">(0,n)</tspan></text>
<text xml:space="preserve" transform="matrix(1 0 -0 1 .000015258789 602.63998)" font-size="8.9664" font-family="CMR9"><tspan y="-215.144" x="180.692 184.27857 188.8873 191.45169 196.06043">(1,1)</tspan></text>
</g>
</svg>
