<?xml version="1.0" encoding="UTF-8" standalone="no"?>
<!DOCTYPE svg PUBLIC "-//W3C//DTD SVG 1.1//EN" "http://www.w3.org/Graphics/SVG/1.1/DTD/svg11.dtd">
<svg xmlns="http://www.w3.org/2000/svg" xmlns:xlink="http://www.w3.org/1999/xlink" version="1.1" width="595.2756pt" height="841.8614pt" viewBox="0 0 595.2756 841.8614">
<g enable-background="new">
<g>
<clipPath id="cp0">
<path transform="matrix(1,0,0,-1,0,841.8614)" d="M 0 0 L 595.2 0 L 595.2 841.8 L 0 841.8 Z " fill-rule="evenodd"/>
</clipPath>
<g clip-path="url(#cp0)">
<text xml:space="preserve" transform="matrix(1 0 -0 1 0 841.8614)" font-size="12" font-family="LiberationSerif" font-weight="bold"><tspan y="-773.9" x="56.8 64.792 68.788 74.788">Etat</tspan></text>
<text xml:space="preserve" transform="matrix(1 0 -0 1 0 841.8614)" font-size="12" font-family="LiberationSerif"><tspan y="-773.9" x="78.8">(</tspan></text>
<text xml:space="preserve" transform="matrix(1 0 -0 1 0 841.8614)" font-size="12" font-family="LiberationSerif"><tspan y="-773.9" x="82.8 90.792 96.792 102.792">Code</tspan></text>
<path transform="matrix(1,0,0,-1,82.8,67.961368)" stroke-width=".7" stroke-linecap="butt" stroke-miterlimit="10" stroke-linejoin="miter" fill="none" stroke="#000000" d="M 0 -1.1 L 25.4 -1.1 "/>
<text xml:space="preserve" transform="matrix(1 0 -0 1 0 841.8614)" font-size="12" font-family="LiberationSerif"><tspan y="-773.9" x="108.2 111.2 114.2 122.804 128.804 138.104">, Nom)</tspan></text>
<text xml:space="preserve" transform="matrix(1 0 -0 1 0 841.8614)" font-size="12" font-family="LiberationSerif" font-weight="bold"><tspan y="-746.3" x="56.8 65.488 69.484 72.784 76.08399 79.38399 84.07599 90.07599 94.07199 99.37599 106.05999">Utilisateur</tspan></text>
<text xml:space="preserve" transform="matrix(1 0 -0 1 0 841.8614)" font-size="12" font-family="LiberationSerif"><tspan y="-746.3" x="111.5">(</tspan></text>
<text xml:space="preserve" transform="matrix(1 0 -0 1 0 841.8614)" font-size="12" font-family="LiberationSerif"><tspan y="-746.3" x="115.5 119.496">Id</tspan></text>
<path transform="matrix(1,0,0,-1,115.5,95.5614)" stroke-width=".7" stroke-linecap="butt" stroke-miterlimit="10" stroke-linejoin="miter" fill="none" stroke="#000000" d="M 0 -1.1 L 10 -1.1 "/>
<text xml:space="preserve" transform="matrix(1 0 -0 1 0 841.8614)" font-size="12" font-family="LiberationSerif"><tspan y="-746.3" x="125.5 128.5 131.5 140.104 146.104 155.404 158.488 161.488 168.172 172.168 177.472 183.472 189.472 198.772 201.772 204.772 212.764 218.764 224.06801 227.06801 230.06801 238.75601 244.75601 254.05602 259.36003 263.35603 269.35603 272.44004 275.44004 283.43205 288.73603 291.73603 294.73603 302.03205 305.33207 310.72007 314.02009 322.0121 328.0121 334.0121 339.3161">, Nom, Pr&#x00e9;nom, Rue, Num&#x00e9;ro, CP, EtatCode)</tspan></text>
<text xml:space="preserve" transform="matrix(1 0 -0 1 0 841.8614)" font-size="12" font-family="LiberationSerif"><tspan y="-732.5" x="56.8 59.8 62.8 65.8 68.8 77.48801 80.788 84.088 87.47199 90.77199 95.46399 100.76799 104.067989 109.37199 115.455989 118.75599 121.75599 129.05199 132.43599 137.73999 141.04 149.032 155.032 161.032 166.42 169.42 173.416 178.72 182.716 188.02 192.016 197.32 203.32 208.62401 214.01201 217.01201 224.30802 227.60802 232.99602 236.29602 239.29602 244.60002 250.60002 256.60005">    Utilisateur.EtatCode r&#x00e9;f&#x00e9;rence Etat.code</tspan></text>
<text xml:space="preserve" transform="matrix(1 0 -0 1 0 841.8614)" font-size="12" font-family="LiberationSerif" font-weight="bold"><tspan y="-704.9" x="56.8 64.096 67.479999 70.77999 76.77999 80.77599">Pilote</tspan></text>
<text xml:space="preserve" transform="matrix(1 0 -0 1 0 841.8614)" font-size="12" font-family="LiberationSerif"><tspan y="-704.9" x="86.2">(</tspan></text>
<text xml:space="preserve" transform="matrix(1 0 -0 1 0 841.8614)" font-size="12" font-family="LiberationSerif"><tspan y="-704.9" x="90.2 94.196">Id</tspan></text>
<path transform="matrix(1,0,0,-1,90.2,136.96137)" stroke-width=".7" stroke-linecap="butt" stroke-miterlimit="10" stroke-linejoin="miter" fill="none" stroke="#000000" d="M 0 -1.1 L 10 -1.1 "/>
<text xml:space="preserve" transform="matrix(1 0 -0 1 0 841.8614)" font-size="12" font-family="LiberationSerif"><tspan y="-704.9" x="100.2 103.2 106.2 113.495998 116.79599 122.09999 127.40399 133.40399 138.096 143.4">, License)</tspan></text>
<text xml:space="preserve" transform="matrix(1 0 -0 1 0 841.8614)" font-size="12" font-family="LiberationSerif"><tspan y="-691.1" x="56.8 59.8 62.8 65.8 68.8 75.484 78.784 82.08399 88.16799 91.46799 96.77199 99.77199 103.76799 109.76799 112.76799 116.76399 122.06799 126.063999 131.368 135.45999 140.76399 146.76399 152.068 157.456 160.456 169.144 172.444 175.744 179.044 182.34401 187.03601 192.34001 195.72402 201.02802 207.02802 210.32802 213.32802 217.32402">    Pilote.Id r&#x00e9;f&#x00e9;rence Utilisateur.Id</tspan></text>
<text xml:space="preserve" transform="matrix(1 0 -0 1 0 841.8614)" font-size="12" font-family="LiberationSerif" font-weight="bold"><tspan y="-663.5" x="56.8 64.395999 70.395999 76.395999 82.395999 88.395999 93.7 100.383998">Voyageur</tspan></text>
<text xml:space="preserve" transform="matrix(1 0 -0 1 0 841.8614)" font-size="12" font-family="LiberationSerif"><tspan y="-663.5" x="105.7">(</tspan></text>
<text xml:space="preserve" transform="matrix(1 0 -0 1 0 841.8614)" font-size="12" font-family="LiberationSerif"><tspan y="-663.5" x="109.7 113.696">Id</tspan></text>
<path transform="matrix(1,0,0,-1,109.7,178.36139)" stroke-width=".7" stroke-linecap="butt" stroke-miterlimit="10" stroke-linejoin="miter" fill="none" stroke="#000000" d="M 0 -1.1 L 10 -1.1 "/>
<text xml:space="preserve" transform="matrix(1 0 -0 1 0 841.8614)" font-size="12" font-family="LiberationSerif"><tspan y="-663.5" x="119.7 122.7 125.7 132.38399 136.37999 141.68399 147.68399 153.68399 158.98799 164.98799 168.288">, Fr&#x00e9;quent)</tspan></text>
<text xml:space="preserve" transform="matrix(1 0 -0 1 0 841.8614)" font-size="12" font-family="LiberationSerif"><tspan y="-649.7" x="56.8 59.8 62.8 65.8">    </tspan></text>
<text xml:space="preserve" transform="matrix(1 0 -0 1 0 841.8614)" font-size="12" font-family="LiberationSerif"><tspan y="-649.7" x="68.8 75.90401 81.90401 87.90401 93.20801 99.20801 104.51201 110.51201">Voyageur</tspan></text>
<text xml:space="preserve" transform="matrix(1 0 -0 1 0 841.8614)" font-size="12" font-family="LiberationSerif"><tspan y="-649.7" x="114.6 117.6 121.596 127.596 130.59601 134.59201 139.89601 143.89202 149.19602 153.19202 158.49602 164.49602 169.88402 175.18802 178.18802 186.87602 190.17603 193.47603 196.86003 200.16004 204.85204 210.15604 213.45604 218.76004 224.76004 228.06005 231.06005 235.05605">.Id r&#x00e9;f&#x00e9;rence Utilisateur.Id</tspan></text>
<text xml:space="preserve" transform="matrix(1 0 -0 1 0 841.8614)" font-size="12" font-family="LiberationSerif" font-weight="bold"><tspan y="-622.1" x="56.8 65.488 70.792 75.892 81.892 88.576 94.576 99.88">A&#x00e9;roport</tspan></text>
<text xml:space="preserve" transform="matrix(1 0 -0 1 0 841.8614)" font-size="12" font-family="LiberationSerif"><tspan y="-622.1" x="103.9">(</tspan></text>
<text xml:space="preserve" transform="matrix(1 0 -0 1 0 841.8614)" font-size="12" font-family="LiberationSerif"><tspan y="-622.1" x="107.9 115.892 121.892 127.892">Code</tspan></text>
<path transform="matrix(1,0,0,-1,107.9,219.76142)" stroke-width=".7" stroke-linecap="butt" stroke-miterlimit="10" stroke-linejoin="miter" fill="none" stroke="#000000" d="M 0 -1.1 L 25.4 -1.1 "/>
<text xml:space="preserve" transform="matrix(1 0 -0 1 0 841.8614)" font-size="12" font-family="LiberationSerif"><tspan y="-622.1" x="133.3 136.3 139.09601 146.992 150.292 153.67601 156.97602 162.28002 165.28002 168.28002 175.57602 178.96002 184.26403 187.56403 195.55603 201.55603 207.55603 212.86003">, Ville, EtatCode)</tspan></text>
<text xml:space="preserve" transform="matrix(1 0 -0 1 0 841.8614)" font-size="12" font-family="LiberationSerif"><tspan y="-608.3" x="56.8 59.8 62.8 65.8 68.200008 76.88801 82.19201 86.18801 92.18801 98.18801 104.18801 108.18401 111.48401 114.48401 121.78001 125.08 130.468 133.768 141.76001 147.76001 153.76001 159.06401 162.06401 166.06002 171.36402 175.36002 180.66402 184.75601 190.06002 196.06002 201.36402 206.75202 209.75202 217.04802 220.34803 225.65203 228.95203 232.03603 237.34003 243.34003 249.34003">    A&#x00e9;roport.EtatCode r&#x00e9;f&#x00e9;rence Etat.code</tspan></text>
<text xml:space="preserve" transform="matrix(1 0 -0 1 0 841.8614)" font-size="12" font-family="LiberationSerif" font-weight="bold"><tspan y="-580.7" x="56.8 65.488 71.488 81.484 88.16801 94.16801 100.07201 106.756008 110.14">Compagnie</tspan></text>
<text xml:space="preserve" transform="matrix(1 0 -0 1 0 841.8614)" font-size="12" font-family="LiberationSerif"><tspan y="-580.7" x="115.5">(</tspan></text>
<text xml:space="preserve" transform="matrix(1 0 -0 1 0 841.8614)" font-size="12" font-family="LiberationSerif"><tspan y="-580.7" x="119.5 123.496">Id</tspan></text>
<path transform="matrix(1,0,0,-1,119.5,261.16139)" stroke-width=".7" stroke-linecap="butt" stroke-miterlimit="10" stroke-linejoin="miter" fill="none" stroke="#000000" d="M 0 -1.1 L 10 -1.1 "/>
<text xml:space="preserve" transform="matrix(1 0 -0 1 0 841.8614)" font-size="12" font-family="LiberationSerif"><tspan y="-580.7" x="129.5 132.5 135.5 144.188 150.188 159.488">, Nom)</tspan></text>
<text xml:space="preserve" transform="matrix(1 0 -0 1 0 841.8614)" font-size="12" font-family="LiberationSerif" font-weight="bold"><tspan y="-553.1" x="56.8 64.6 70.6 73.899997 79.899997">Avion</tspan></text>
<text xml:space="preserve" transform="matrix(1 0 -0 1 0 841.8614)" font-size="12" font-family="LiberationSerif"><tspan y="-553.1" x="86.6">(</tspan></text>
<text xml:space="preserve" transform="matrix(1 0 -0 1 0 841.8614)" font-size="12" font-family="LiberationSerif"><tspan y="-553.1" x="90.6 94.596">Id</tspan></text>
<path transform="matrix(1,0,0,-1,90.6,288.7614)" stroke-width=".7" stroke-linecap="butt" stroke-miterlimit="10" stroke-linejoin="miter" fill="none" stroke="#000000" d="M 0 -1.1 L 10 -1.1 "/>
<text xml:space="preserve" transform="matrix(1 0 -0 1 0 841.8614)" font-size="12" font-family="LiberationSerif"><tspan y="-553.1" x="100.6 103.6 106.6 114.591999 120.591999 129.892 135.892 141.196 147.196 153.28 156.58 161.884 165.88 171.88">, CompagnieId)</tspan></text>
<text xml:space="preserve" transform="matrix(1 0 -0 1 0 841.8614)" font-size="12" font-family="LiberationSerif"><tspan y="-539.3" x="56.8 59.8 62.8 65.8 68.200008 75.90401 81.90401 85.204 91.204 97.204 100.204 108.196 114.28 123.579998 129.57999 134.88399 140.88399 146.88399 150.18399 155.48799 159.484 165.568 168.568 172.564 177.868 181.864 187.168 191.164 196.468 202.468 207.856 213.16">    Avion.CompagnieId r&#x00e9;f&#x00e9;rence </tspan></text>
<text xml:space="preserve" transform="matrix(1 0 -0 1 0 841.8614)" font-size="12" font-family="LiberationSerif"><tspan y="-539.3" x="216.2 224.192 230.192 239.492 245.492 250.796 256.79603 262.88005 266.18006">Compagnie</tspan></text>
<text xml:space="preserve" transform="matrix(1 0 -0 1 0 841.8614)" font-size="12" font-family="LiberationSerif"><tspan y="-539.3" x="271.5 274.5 278.496">.Id</tspan></text>
<text xml:space="preserve" transform="matrix(1 0 -0 1 0 841.8614)" font-size="12" font-family="LiberationSerif" font-weight="bold"><tspan y="-511.7" x="56.8 64.6 70.6 73.899997 79.899997 86.58399 95.271999 100.576 107.871997 112.97199 118.27599">AvionDeFret</tspan></text>
<text xml:space="preserve" transform="matrix(1 0 -0 1 0 841.8614)" font-size="12" font-family="LiberationSerif"><tspan y="-511.7" x="122.4">(</tspan></text>
<text xml:space="preserve" transform="matrix(1 0 -0 1 0 841.8614)" font-size="12" font-family="LiberationSerif"><tspan y="-511.7" x="126.4 130.396">Id</tspan></text>
<path transform="matrix(1,0,0,-1,126.4,330.16139)" stroke-width=".7" stroke-linecap="butt" stroke-miterlimit="10" stroke-linejoin="miter" fill="none" stroke="#000000" d="M 0 -1.1 L 10 -1.1 "/>
<text xml:space="preserve" transform="matrix(1 0 -0 1 0 841.8614)" font-size="12" font-family="LiberationSerif"><tspan y="-511.7" x="136.4 139.4 142.196 148.70001 154.70001 160.70001 166.70001 172.00402 178.00402 183.30802">, Tonnage)</tspan></text>
<text xml:space="preserve" transform="matrix(1 0 -0 1 0 841.8614)" font-size="12" font-family="LiberationSerif"><tspan y="-497.9" x="56.8 59.8 62.8 65.8">    </tspan></text>
<text xml:space="preserve" transform="matrix(1 0 -0 1 0 841.8614)" font-size="12" font-family="LiberationSerif"><tspan y="-497.9" x="68.8 76.600009 82.600009 85.9 91.9 97.9 106.588008 111.892009 118.57601 122.572017 127.876018 131.17601 134.17601 138.17201 144.25601 147.25601 151.25202 156.55602 160.55202 165.85602 169.85202 175.15602 181.15602 186.46002 191.84803 194.15203 201.95203 207.95203 211.25203 217.25203 223.25203 226.25203 230.24803">AvionDeFret.Id r&#x00e9;f&#x00e9;rence Avion.Id</tspan></text>
<text xml:space="preserve" transform="matrix(1 0 -0 1 0 841.8614)" font-size="12" font-family="LiberationSerif" font-weight="bold"><tspan y="-470.3" x="56.8 64.6 70.6 73.899997 79.899997 86.58399 95.271999 100.576 108.56799 111.86799 117.86799 124.551998">AvionDeLigne</tspan></text>
<text xml:space="preserve" transform="matrix(1 0 -0 1 0 841.8614)" font-size="12" font-family="LiberationSerif"><tspan y="-470.3" x="129.9">(</tspan></text>
<text xml:space="preserve" transform="matrix(1 0 -0 1 0 841.8614)" font-size="12" font-family="LiberationSerif"><tspan y="-470.3" x="133.9 137.896">Id</tspan></text>
<path transform="matrix(1,0,0,-1,133.9,371.5614)" stroke-width=".7" stroke-linecap="butt" stroke-miterlimit="10" stroke-linejoin="miter" fill="none" stroke="#000000" d="M 0 -1.1 L 10 -1.1 "/>
<text xml:space="preserve" transform="matrix(1 0 -0 1 0 841.8614)" font-size="12" font-family="LiberationSerif"><tspan y="-470.3" x="143.9">)</tspan></text>
<text xml:space="preserve" transform="matrix(1 0 -0 1 0 841.8614)" font-size="12" font-family="LiberationSerif"><tspan y="-456.5" x="56.8 59.8 62.8 65.8 68.200008 75.90401 81.90401 85.204 91.204 97.204 105.892009 111.28001 118.576007 121.876 127.876 133.876 139.18001 142.18001 146.17601 152.26001 155.26001 159.25601 164.56002 168.55602 173.86002 177.85602 183.16002 189.16002 194.46402 199.85202 202.15602 209.95603 215.95603 219.25603 225.25603 231.25603 234.25603 238.25203">    AvionDeLigne.Id r&#x00e9;f&#x00e9;rence Avion.Id</tspan></text>
<text xml:space="preserve" transform="matrix(1 0 -0 1 0 841.8614)" font-size="12" font-family="LiberationSerif" font-weight="bold"><tspan y="-428.9" x="56.8 63.484 66.784 72.088 78.088">Si&#x00e8;ge</tspan></text>
<text xml:space="preserve" transform="matrix(1 0 -0 1 0 841.8614)" font-size="12" font-family="LiberationSerif"><tspan y="-428.9" x="83.5">(</tspan></text>
<text xml:space="preserve" transform="matrix(1 0 -0 1 0 841.8614)" font-size="12" font-family="LiberationSerif"><tspan y="-428.9" x="87.5 91.496">Id</tspan></text>
<path transform="matrix(1,0,0,-1,87.5,412.9614)" stroke-width=".7" stroke-linecap="butt" stroke-miterlimit="10" stroke-linejoin="miter" fill="none" stroke="#000000" d="M 0 -1.1 L 10 -1.1 "/>
<text xml:space="preserve" transform="matrix(1 0 -0 1 0 841.8614)" font-size="12" font-family="LiberationSerif"><tspan y="-428.9" x="97.5 100.5 103.5 111.492 116.796 122.796 128.79599 134.09999 139.40399 142.48799 145.48799 152.784 158.088 161.388 164.688 168.78 174.084 177.084 179.388 187.188 193.188 196.488 202.488 208.488 212.48401">, Rang&#x00e9;e, Lettre, AvionId</tspan></text>
<text xml:space="preserve" transform="matrix(1 0 -0 1 0 841.8614)" font-size="12" font-family="LiberationSerif"><tspan y="-428.9" x="218.6">)</tspan></text>
<text xml:space="preserve" transform="matrix(1 0 -0 1 0 841.8614)" font-size="12" font-family="LiberationSerif"><tspan y="-415.1" x="56.8 59.8 62.8 65.8 68.8 75.484 78.784 84.088 90.088 95.392 98.392 106.192 112.192 115.492 121.492 127.492 131.48799 137.57199 140.57199 144.568 149.872 153.868 159.172 163.168 168.472 174.472 179.86 185.164 187.564 195.26799 201.26799 204.568 210.568 216.568 219.568 223.564">    Si&#x00e8;ge.AvionId r&#x00e9;f&#x00e9;rence Avion.Id</tspan></text>
<text xml:space="preserve" transform="matrix(1 0 -0 1 0 841.8614)" font-size="12" font-family="LiberationSerif" font-weight="bold"><tspan y="-387.5" x="56.8 64.395999 70.395999">Vol</tspan></text>
<text xml:space="preserve" transform="matrix(1 0 -0 1 0 841.8614)" font-size="12" font-family="LiberationSerif"><tspan y="-387.5" x="73.7">(</tspan></text>
<text xml:space="preserve" transform="matrix(1 0 -0 1 0 841.8614)" font-size="12" font-family="LiberationSerif"><tspan y="-387.5" x="77.7 81.696">Id</tspan></text>
<path transform="matrix(1,0,0,-1,77.7,454.3614)" stroke-width=".7" stroke-linecap="butt" stroke-miterlimit="10" stroke-linejoin="miter" fill="none" stroke="#000000" d="M 0 -1.1 L 10 -1.1 "/>
<text xml:space="preserve" transform="matrix(1 0 -0 1 0 841.8614)" font-size="12" font-family="LiberationSerif"><tspan y="-387.5" x="87.7 90.7 93.7 100.383998 103.68399 106.983989 113.067989 116.36798 121.67198 125.667987">, PiloteId</tspan></text>
<text xml:space="preserve" transform="matrix(1 0 -0 1 0 841.8614)" font-size="12" font-family="LiberationSerif"><tspan y="-387.5" x="131.7 134.7 137.09999 144.80399 150.80399 154.10399 160.10399 166.10399 170.09999 176.09999">, AvionId,</tspan></text>
<text xml:space="preserve" transform="matrix(1 0 -0 1 0 841.8614)" font-size="12" font-family="LiberationSerif"><tspan y="-387.5" x="179.2 181.504 190.192 195.496 199.492 205.492 211.492 217.492 221.488 224.78801 233.47602 238.78002 244.78002 250.08402 254.08002"> A&#x00e9;roportD&#x00e9;part</tspan></text>
<text xml:space="preserve" transform="matrix(1 0 -0 1 0 841.8614)" font-size="12" font-family="LiberationSerif"><tspan y="-387.5" x="257.5 265.492 271.492 277.492">Code</tspan></text>
<text xml:space="preserve" transform="matrix(1 0 -0 1 0 841.8614)" font-size="12" font-family="LiberationSerif"><tspan y="-387.5" x="282.8 285.8 288.19999 296.88798 302.192 306.188 312.188 318.188 324.188 328.184 331.484 340.172 344.168 348.164 351.46403 357.46403 362.76805">, A&#x00e9;roportArriv&#x00e9;e</tspan></text>
<text xml:space="preserve" transform="matrix(1 0 -0 1 0 841.8614)" font-size="12" font-family="LiberationSerif"><tspan y="-387.5" x="368.1 376.092 382.092 388.092">Code</tspan></text>
<text xml:space="preserve" transform="matrix(1 0 -0 1 0 841.8614)" font-size="12" font-family="LiberationSerif"><tspan y="-387.5" x="393.5 396.5 399.5 408.188 413.492 419.492 423.488 428.79203 437.48 442.78404 448.78404 454.08805 458.08406 461.38407 464.38407 467.38407 476.07206 481.37608 487.37608 491.37208 496.6761 505.36408 509.36009 513.3561 516.65609 522.65609 528.04409 533.348">, HeureD&#x00e9;part, HeureArriv&#x00e9;e,</tspan></text>
<text xml:space="preserve" transform="matrix(1 0 -0 1 0 841.8614)" font-size="12" font-family="LiberationSerif"><tspan y="-373.7" x="56.8 65.488 68.787998 73.479999 76.77999 82.08399 88.08399 93.47199 98.77599">Distance)</tspan></text>
<text xml:space="preserve" transform="matrix(1 0 -0 1 0 841.8614)" font-size="12" font-family="LiberationSerif"><tspan y="-359.9" x="56.8 59.8 62.8 65.8 68.596 75.700008 81.700008 85">    Vol.</tspan></text>
<text xml:space="preserve" transform="matrix(1 0 -0 1 0 841.8614)" font-size="12" font-family="LiberationSerif"><tspan y="-359.9" x="88.1 94.784008 98.084 101.383998 107.383998 110.68399 115.98799 119.98399 126.06799 129.068 133.064 138.368 142.364 147.668 151.664 156.968 162.968 168.356 173.66 176.66 183.344 186.644 189.944 195.944 199.328 204.632 207.632 211.628">PiloteId r&#x00e9;f&#x00e9;rence Pilote.Id</tspan></text>
<text xml:space="preserve" transform="matrix(1 0 -0 1 0 841.8614)" font-size="12" font-family="LiberationSerif"><tspan y="-346.1" x="56.8 59.8 62.8 65.8 68.596 75.700008 81.700008 85 88 95.8 101.8 105.1 111.1 117.1 121.096 127.18 130.18 134.176 139.48 143.476 148.78 152.776 158.08 164.08 169.384 174.772 177.076 184.876 190.876 194.17601 200.17601 206.17601 209.17601 213.17201">    Vol.AvionId r&#x00e9;f&#x00e9;rence Avion.Id</tspan></text>
<text xml:space="preserve" transform="matrix(1 0 -0 1 0 841.8614)" font-size="12" font-family="LiberationSerif"><tspan y="-332.3" x="56.8 59.8 62.8 65.8 68.596 75.700008 81.700008 85 88 96.688 101.992008 105.98801 111.98801 117.98801 123.98801 127.98401 131.28401 139.97202 145.27602 151.36002 156.66402 160.66002 163.96002 171.95203 177.95203 183.95203 189.34003 192.34003 195.34003 199.33603 204.64003 208.63603 213.94004 217.93604 223.24004 229.24004 234.54404 239.93204 242.23604 250.92404 256.22807 260.22407 266.22407 272.22407 278.22407 282.22007 285.52009 288.52009 296.5121 302.5121 308.5121">    Vol.A&#x00e9;roportD&#x00e9;partCode  r&#x00e9;f&#x00e9;rence A&#x00e9;roport.Code</tspan></text>
<text xml:space="preserve" transform="matrix(1 0 -0 1 0 841.8614)" font-size="12" font-family="LiberationSerif"><tspan y="-318.5" x="56.8 59.8 62.8 65.8 68.596 75.700008 81.700008 85 88 96.688 101.992008 105.98801 111.98801 117.98801 123.98801 127.98401 131.28401 139.97202 143.96802 147.96402 151.26403 157.34803 162.65203 167.95603 175.94803 181.94803 187.94803 193.33603 196.33603 199.33603 203.33203 208.63603 212.63204 217.93604 221.93204 227.23604 233.23604 238.54004 243.92804 246.23204 254.92005 260.22407 264.22007 270.22007 276.22007 282.22007 286.21607 289.51609 292.51609 300.5081 306.5081 312.5081">    Vol.A&#x00e9;roportArriv&#x00e9;eCode  r&#x00e9;f&#x00e9;rence A&#x00e9;roport.Code</tspan></text>
<text xml:space="preserve" transform="matrix(1 0 -0 1 0 841.8614)" font-size="12" font-family="LiberationSerif" font-weight="bold"><tspan y="-290.9" x="56.8 65.488 70.792 75.484 80.788 86.092 92.092 98.092 102.088008 105.388 111.388">R&#x00e9;servation</tspan></text>
<text xml:space="preserve" transform="matrix(1 0 -0 1 0 841.8614)" font-size="12" font-family="LiberationSerif"><tspan y="-290.9" x="118.1">(</tspan></text>
<text xml:space="preserve" transform="matrix(1 0 -0 1 0 841.8614)" font-size="12" font-family="LiberationSerif"><tspan y="-290.9" x="122.1 129.204 135.204 138.504 142.5 148.5 151.584 154.584 161.26799 164.568 169.872 175.872 181.176 185.172">VolId, Si&#x00e8;geId</tspan></text>
<path transform="matrix(1,0,0,-1,122.1,550.9614)" stroke-width=".7" stroke-linecap="butt" stroke-miterlimit="10" stroke-linejoin="miter" fill="none" stroke="#000000" d="M 0 -1.1 L 69.1 -1.1 "/>
<text xml:space="preserve" transform="matrix(1 0 -0 1 0 841.8614)" font-size="12" font-family="LiberationSerif"><tspan y="-290.9" x="191.2 194.2 196.996 204.1 210.1 216.1 221.404 227.404 232.70801 238.70801 242.70401 246.70001 252.70001 255.78401">, VoyageurId, </tspan></text>
<text xml:space="preserve" transform="matrix(1 0 -0 1 0 841.8614)" font-size="12" font-family="LiberationSerif" font-style="italic"><tspan y="-290.9" x="258.8 266.096 270.788 274.088">Prix</tspan></text>
<text xml:space="preserve" transform="matrix(1 0 -0 1 0 841.8614)" font-size="12" font-family="LiberationSerif"><tspan y="-290.9" x="279.4">)</tspan></text>
<text xml:space="preserve" transform="matrix(1 0 -0 1 0 841.8614)" font-size="12" font-family="LiberationSerif"><tspan y="-277.1" x="56.8 59.8 62.8 65.8 68.8 71.8 79.792 85.096 89.788 95.092 99.088008 105.088008 110.476009 113.776 117.076 123.076 129.07599 132.07599 139.18 145.18 148.48 152.476 158.56 161.56 165.556 170.86 174.856 180.16 184.156 189.46 195.46 200.848 206.15201 208.94802 216.05202 222.05202 225.35202 228.35202 232.34803">     R&#x00e9;servation.VolId r&#x00e9;f&#x00e9;rence Vol.Id</tspan></text>
<text xml:space="preserve" transform="matrix(1 0 -0 1 0 841.8614)" font-size="12" font-family="LiberationSerif"><tspan y="-263.3" x="56.8 59.8 62.8 65.8 68.8 71.8 79.792 85.096 89.788 95.092 99.088008 105.088008 110.476009 113.776 117.076 123.076 129.07599 132.07599 138.75998 142.05998 147.36399 153.36399 158.66799 162.66399 168.74799 171.74799 175.74399 181.04799 185.04399 190.34799 194.344 199.648 205.648 211.036 216.34 219.34 226.02399 229.32399 234.62799 240.62799 245.93199 248.93199 252.928">     R&#x00e9;servation.Si&#x00e8;geId r&#x00e9;f&#x00e9;rence Si&#x00e8;ge.Id</tspan></text>
<text xml:space="preserve" transform="matrix(1 0 -0 1 0 841.8614)" font-size="12" font-family="LiberationSerif"><tspan y="-249.5" x="56.8 59.8 62.8 65.8 68.8 71.8 79.792 85.096 89.788 95.092 99.088008 105.088008 110.476009 113.776 117.076 123.076 129.07599 132.07599 139.18 145.18 151.18 156.484 162.568 167.872 173.872 177.868 181.864 187.864 190.864 194.86 200.164 204.16 209.464 213.46 218.764 224.848 230.15201 235.45601 238.25202 245.35602 251.35602 257.35603 262.66004 268.66004 273.96406 280.04808 283.34806 286.34806 290.34407">     R&#x00e9;servation.VoyageurId r&#x00e9;f&#x00e9;rence Voyageur.Id</tspan></text>
<text xml:space="preserve" transform="matrix(1 0 -0 1 0 841.8614)" font-size="12" font-family="LiberationSerif"><tspan y="-208.1" x="56.8 60.795999 63.795999 70.48 76.48 82.48 86.476009 89.476009 94.78001 100.78001 106.08401 112.08401 118.08401 123.47201 126.47201 134.464 139.768 144.46 149.764 153.76001 159.76001 165.06401 168.36402 171.66402 177.66402 183.66402 186.74802 189.74802 193.04802 197.04402 202.34803 208.34803 211.64803 217.64803 223.73203 226.73203 230.72803 236.03203 240.02803 245.33203 249.32804 254.63204 260.63203 266.02003 271.32405 274.32405 277.62406 283.62406 289.62406 292.92408 296.92008 302.30809 307.6121 310.9121 316.3001 325.60014 330.90415 336.90415 340.28816 343.28816 349.28816 354.59217 358.58818 361.58818 368.27217 371.57218 376.8762 382.8762 388.1802 391.1802 398.9802 404.9802 408.2802 414.2802 420.2802 424.2762 430.36024 433.36024 438.66426 441.96427 444.76026 451.86427 457.86427 461.16429 464.16429 471.96427 477.96427 481.26429 487.26429 493.26429 497.26029 503.3443 506.3443 510.3403 516.34036 519.6403 524.9443 527.9443">- Pour chaque R&#x00e9;servation, l&#x2019;avion r&#x00e9;f&#x00e9;renc&#x00e9; indirectement par Si&#x00e8;ge.AvionId et Vol.AvionId (via  </tspan></text>
<text xml:space="preserve" transform="matrix(1 0 -0 1 0 841.8614)" font-size="12" font-family="LiberationSerif"><tspan y="-194.3" x="56.8 64.792 70.096 74.788 80.092 84.088008 90.088008 95.476009 98.776 102.076 108.076 114.076 117.076 123.76 127.06 132.364 138.364 143.668 147.664 153.748 156.748 162.052 165.436 168.436 176.42801 181.62401 186.31601 191.62001 195.61602 201.61602 207.00402 210.30402 213.60402 219.60402 225.60402 228.60402 235.70803 241.79203 245.09203 249.08803 255.08803 259.084 262.084 268.084 274.084 277.38404 283.38404 288.68806 294.77207 298.07209 301.07209 306.3761 309.67613 313.67213 319.06013 322.06013 325.36015 331.36015 336.66416 342.66416 346.04817 349.34819 355.34819 361.34819 366.6522 371.34419">R&#x00e9;servation.Si&#x00e8;geId et R&#x00e9;servation.VolId) doivent &#x00ea;tre identiques.</tspan></text>
<text xml:space="preserve" transform="matrix(1 0 -0 1 0 841.8614)" font-size="12" font-family="LiberationSerif"><tspan y="-180.5" x="56.8 60.795999 63.795999 70.48 76.48 82.48 86.476009 89.476009 94.78001 100.78001 106.08401 112.08401 118.08401 123.47201 126.47201 133.156 136.45601 141.76001 147.76001 153.06401 156.06401 159.06401 162.36402 167.75202 170.75202 176.05602 182.05602 191.35602 197.35602 200.65602 206.74002 212.04402 215.34403 220.03603 226.03603 232.03603 235.03603 240.34003 248.33203 253.63603 259.63606 265.63606 271.02406 276.32807 279.32807 282.32807 289.62409 295.0121 298.3121 301.61213 305.60813 310.91215 313.99617 316.30015 324.10014 330.10014 333.40016 339.40016 345.40016 349.39616 355.39616 360.70018 363.70018 369.70018 375.70018 379.08418 382.3842 385.3842 390.6882 393.98823 397.98423 403.37223 406.37223 412.37223 418.37223 421.67225 427.67225 433.67225 438.97627">- Pour chaque Si&#x00e8;ge, la combinaison &#x201c;Rang&#x00e9;e, Lettre, AvionId&#x201d; doit &#x00ea;tre unique.</tspan></text>
</g>
</g>
</g>
</svg>
